<svg width="159" height="148" viewBox="0 0 159 148" fill="none" xmlns="http://www.w3.org/2000/svg">
<path d="M0 0H159V119H0V0Z" fill="#BDC2BF"/>
<path d="M14 14H145V105H14V14Z" fill="#58A8A9"/>
<path fill-rule="evenodd" clip-rule="evenodd" d="M13 13H146V106H13V13ZM14 14V105H145V14H14Z" fill="black"/>
<path d="M158 0H159V121H158V0Z" fill="black"/>
<path d="M157 0H158V120H157V0Z" fill="#878995"/>
<path d="M0 120H158V121H0V120Z" fill="black"/>
<path d="M0 0H1V120H0V0Z" fill="#C6C5CD"/>
<path d="M1 0H2V120H1V0Z" fill="#FEFFFF"/>
<path d="M0 0H158V1H0V0Z" fill="#C6C5CD"/>
<path d="M2 1H158V2H2V1Z" fill="#FEFFFF"/>
<path d="M145 14H146V106H145V14Z" fill="#F0FFFF"/>
<path d="M14 105H145V106H14V105Z" fill="#F0FFFF"/>
<path d="M14 104H145V105H14V104Z" fill="#858B8B"/>
<g filter="url(#filter0_d)">
<path d="M140 113H145V114H140V113Z" fill="#39CF51"/>
</g>
<path d="M2 119H157V120H2V119Z" fill="#878785"/>
<path d="M18 120H141V130H18V120Z" fill="#88878F"/>
<path fill-rule="evenodd" clip-rule="evenodd" d="M140 121H19V129H140V121ZM18 120V130H141V120H18Z" fill="black"/>
<path d="M18 121H19V125H18V121Z" fill="#898987"/>
<path d="M19 125H140V129H19V125Z" fill="#C1C9CC"/>
<path d="M18 125H19V129H18V125Z" fill="#D5D6CE"/>
<path d="M110 121H111V125H110V121Z" fill="black"/>
<path d="M111 121H112V125H111V121Z" fill="#C4C4C4"/>
<path d="M110 125H111V129H110V125Z" fill="#7C8184"/>
<path d="M111 125H112V129H111V125Z" fill="#FBFFFF"/>
<path d="M47 121H48V125H47V121Z" fill="black"/>
<path d="M48 121H49V125H48V121Z" fill="#C4C4C4"/>
<path d="M47 125H48V129H47V125Z" fill="#7C8184"/>
<path d="M48 125H49V129H48V125Z" fill="#FBFFFF"/>
<path d="M19 121H20V125H19V121Z" fill="#CDCCD2"/>
<path d="M19 125H20V129H19V125Z" fill="#FCFBFF"/>
<path d="M55 134H104V140H55V134Z" fill="#C1C5C8"/>
<path d="M55 134H103V138H55V134Z" fill="#888C8F"/>
<path d="M103 134H104V140H103V134Z" fill="#020100"/>
<path d="M55 134H57V138H55V134Z" fill="#C9CAC4"/>
<path d="M55 138H56V140H55V138Z" fill="#C9CAC4"/>
<path d="M56 138H57V140H56V138Z" fill="#FFFFFA"/>
<path d="M101 138H103V140H101V138Z" fill="#888C8F"/>
<path d="M70 136H89V137H70V136Z" fill="black"/>
<path d="M63 135H70V136H63V135Z" fill="black"/>
<path d="M57 134H63V135H57V134Z" fill="black"/>
<path d="M96 134H102V135H96V134Z" fill="black"/>
<path d="M89 135H96V136H89V135Z" fill="black"/>
<path d="M53 133H57V134H53V133Z" fill="black"/>
<path d="M102 133H106V134H102V133Z" fill="black"/>
<path d="M50 132H53V133H50V132Z" fill="black"/>
<path d="M106 132H109V133H106V132Z" fill="black"/>
<path d="M48 131H50V132H48V131Z" fill="black"/>
<path d="M109 131H111V132H109V131Z" fill="black"/>
<path d="M47 130H48V131H47V130Z" fill="black"/>
<path d="M111 130H112V131H111V130Z" fill="black"/>
<path d="M50 130H109V132H50V130Z" fill="#88898E"/>
<path d="M70 135H89V136H70V135Z" fill="#878B8E"/>
<path d="M63 134H70V135H63V134Z" fill="#878B8E"/>
<path d="M57 133H63V134H57V133Z" fill="#878B8E"/>
<path d="M96 133H102V134H96V133Z" fill="#878B8E"/>
<path d="M89 134H96V135H89V134Z" fill="#878B8E"/>
<path d="M53 132H57V133H53V132Z" fill="#878B8E"/>
<path d="M102 132H106V133H102V132Z" fill="#878B8E"/>
<path d="M50 131H53V132H50V131Z" fill="#878B8E"/>
<path d="M106 131H109V132H106V131Z" fill="#878B8E"/>
<path d="M48 130H50V131H48V130Z" fill="#878B8E"/>
<path d="M109 130H111V131H109V130Z" fill="#878B8E"/>
<path d="M70 132H89V135H70V132Z" fill="#C1C5C8"/>
<path d="M57 132H70V133H57V132Z" fill="#C1C5C8"/>
<path d="M89 132H102V133H89V132Z" fill="#C1C5C8"/>
<path d="M63 133H70V134H63V133Z" fill="#C1C5C8"/>
<path d="M89 133H96V134H89V133Z" fill="#C1C5C8"/>
<path d="M139 121H140V125H139V121Z" fill="black"/>
<path d="M19 128H140V129H19V128Z" fill="#8A8B90"/>
<path d="M139 125H140V128H139V125Z" fill="#8A8B90"/>
<path d="M29 140H130V148H29V140Z" fill="#C4C4C4"/>
<path d="M30 141H130V142H30V141Z" fill="#FCFFFF"/>
<path d="M26 147H130V148H26V147Z" fill="black"/>
<path d="M27 146H131V147H27V146Z" fill="#85888D"/>
<path d="M130 141H131V144H130V141Z" fill="#85888D"/>
<path d="M131 142H132V144H131V142Z" fill="#131708"/>
<path d="M130 144H131V146H130V144Z" fill="#CBCED7"/>
<path d="M131 144H132V147H131V144Z" fill="#85888D"/>
<path d="M132 144H133V148H132V144Z" fill="#131708"/>
<path d="M130 147H132V148H130V147Z" fill="#131708"/>
<path d="M26 143H27V147H26V143Z" fill="#C4C4C4"/>
<path d="M27 143H28V146H27V143Z" fill="#FCFFFF"/>
<path d="M27 142H28V143H27V142Z" fill="#C4C4C4"/>
<path d="M28 141H29V142H28V141Z" fill="#C4C4C4"/>
<path d="M28 142H29V143H28V142Z" fill="#FCFFFF"/>
<path d="M29 141H30V142H29V141Z" fill="#ECEDE5"/>
<path d="M29 142H30V146H29V142Z" fill="#C4C4C4"/>
<path d="M28 143H29V146H28V143Z" fill="#C4C4C4"/>
<rect x="37" y="25" width="3" height="6" fill="black"/>
<rect x="43" y="31" width="3" height="6" fill="black"/>
<rect x="49" y="37" width="3" height="6" fill="black"/>
<rect x="52" y="34" width="3" height="6" fill="black"/>
<rect x="58" y="40" width="3" height="6" fill="black"/>
<rect x="61" y="37" width="3" height="6" fill="black"/>
<rect x="67" y="37" width="3" height="9" fill="black"/>
<rect x="70" y="37" width="3" height="6" fill="black"/>
<rect x="73" y="37" width="3" height="6" fill="black"/>
<rect x="37" y="37" width="3" height="6" fill="#FF0000"/>
<rect x="43" y="43" width="3" height="6" fill="#FF0000"/>
<rect x="49" y="49" width="3" height="6" fill="#FF0000"/>
<rect x="52" y="46" width="3" height="6" fill="#FF0000"/>
<rect x="58" y="52" width="3" height="6" fill="#FF0000"/>
<rect x="61" y="49" width="3" height="6" fill="#FF0000"/>
<rect x="67" y="49" width="3" height="9" fill="#FF0000"/>
<rect x="70" y="49" width="3" height="6" fill="#FF0000"/>
<rect x="73" y="49" width="3" height="6" fill="#FF0000"/>
<rect x="37" y="49" width="3" height="6" fill="black"/>
<rect x="43" y="55" width="3" height="6" fill="black"/>
<rect x="49" y="61" width="3" height="6" fill="black"/>
<rect x="52" y="58" width="3" height="6" fill="black"/>
<rect x="79" y="34" width="48" height="54" fill="black"/>
<rect x="58" y="64" width="3" height="6" fill="black"/>
<rect x="61" y="61" width="3" height="6" fill="black"/>
<rect x="67" y="61" width="3" height="9" fill="black"/>
<rect x="70" y="61" width="3" height="6" fill="black"/>
<rect x="73" y="61" width="3" height="6" fill="black"/>
<rect x="37" y="61" width="3" height="6" fill="#0000FF"/>
<rect x="43" y="67" width="3" height="6" fill="#0000FF"/>
<rect x="49" y="73" width="3" height="6" fill="#0000FF"/>
<rect x="52" y="70" width="3" height="6" fill="#0000FF"/>
<rect x="58" y="76" width="3" height="6" fill="#0000FF"/>
<rect x="61" y="73" width="3" height="6" fill="#0000FF"/>
<rect x="67" y="73" width="3" height="9" fill="#0000FF"/>
<rect x="70" y="73" width="3" height="6" fill="#0000FF"/>
<rect x="73" y="73" width="3" height="6" fill="#0000FF"/>
<rect x="37" y="73" width="3" height="6" fill="black"/>
<rect x="43" y="79" width="3" height="6" fill="black"/>
<rect x="49" y="85" width="3" height="6" fill="black"/>
<rect x="52" y="82" width="3" height="6" fill="black"/>
<rect x="58" y="88" width="3" height="6" fill="black"/>
<rect x="61" y="85" width="3" height="6" fill="black"/>
<rect x="67" y="85" width="3" height="9" fill="black"/>
<rect x="70" y="85" width="3" height="6" fill="black"/>
<rect x="73" y="85" width="3" height="6" fill="black"/>
<rect x="85" y="64" width="15" height="15" fill="#0000FF"/>
<rect x="88" y="61" width="12" height="3" fill="#0000FF"/>
<rect x="85" y="79" width="9" height="3" fill="#0000FF"/>
<rect x="85" y="40" width="15" height="15" fill="#FF0000"/>
<rect x="88" y="37" width="12" height="3" fill="#FF0000"/>
<rect x="85" y="55" width="9" height="3" fill="#FF0000"/>
<rect width="14.9998" height="15" transform="matrix(-1 0 0 1 121 40)" fill="#00FF00"/>
<rect width="12" height="3" transform="matrix(-1 0 0 1 118 37)" fill="#00FF00"/>
<rect width="9" height="3" transform="matrix(-1 0 0 1 121 55)" fill="#00FF00"/>
<rect width="14.9998" height="15" transform="matrix(-1 0 0 1 121 64)" fill="#FFFF00"/>
<rect width="12" height="3" transform="matrix(-1 0 0 1 118 61)" fill="#FFFF00"/>
<rect width="9" height="3" transform="matrix(-1 0 0 1 121 79)" fill="#FFFF00"/>
<rect x="82" y="31" width="42" height="3" fill="black"/>
<rect x="88" y="28" width="30" height="3" fill="black"/>
<rect x="79" y="88" width="12" height="3" fill="black"/>
<rect x="115" y="88" width="12" height="3" fill="black"/>
<rect x="121" y="91" width="6" height="3" fill="black"/>
<rect x="79" y="91" width="6" height="3" fill="black"/>
<defs>
<filter id="filter0_d" x="136" y="109" width="13" height="9" filterUnits="userSpaceOnUse" color-interpolation-filters="sRGB">
<feFlood flood-opacity="0" result="BackgroundImageFix"/>
<feColorMatrix in="SourceAlpha" type="matrix" values="0 0 0 0 0 0 0 0 0 0 0 0 0 0 0 0 0 0 127 0"/>
<feOffset/>
<feGaussianBlur stdDeviation="2"/>
<feColorMatrix type="matrix" values="0 0 0 0 0.301961 0 0 0 0 0.87451 0 0 0 0 0.384314 0 0 0 1 0"/>
<feBlend mode="normal" in2="BackgroundImageFix" result="effect1_dropShadow"/>
<feBlend mode="normal" in="SourceGraphic" in2="effect1_dropShadow" result="shape"/>
</filter>
</defs>
</svg>
