<svg width="20" height="19" viewBox="0 0 20 19" fill="none" xmlns="http://www.w3.org/2000/svg">
<rect x="2" y="2" width="9" height="11" fill="black"/>
<rect x="3" y="3" width="7" height="9" fill="white"/>
<rect x="7" y="4" width="2" height="1" fill="#0000FF"/>
<rect x="4" y="8" width="2" height="1" fill="#0000FF"/>
<rect x="4" y="10" width="2" height="1" fill="#0000FF"/>
<rect x="4" y="4" width="2" height="3" fill="#008200"/>
<rect x="7" y="6" width="1" height="1" fill="#0000FF"/>
<rect x="6" y="8" width="12" height="9" fill="black"/>
<rect x="7" y="9" width="10" height="7" fill="white"/>
<rect x="8" y="11" width="1" height="1" fill="#FFFF00"/>
<rect x="8" y="15" width="1" height="1" fill="#FFFF00"/>
<rect x="11" y="12" width="1" height="1" fill="#FFFF00"/>
<rect x="13" y="12" width="1" height="1" fill="#FFFF00"/>
<rect x="11" y="11" width="3" height="3" fill="#0000FF"/>
<rect x="10" y="10" width="1" height="1" fill="#0000FF"/>
<rect x="12" y="10" width="1" height="1" fill="#0000FF"/>
<rect x="14" y="10" width="1" height="1" fill="#0000FF"/>
<rect x="14" y="12" width="1" height="1" fill="#0000FF"/>
<rect x="14" y="14" width="1" height="1" fill="#0000FF"/>
<rect x="12" y="14" width="1" height="1" fill="#0000FF"/>
<rect x="10" y="14" width="1" height="1" fill="#0000FF"/>
<rect x="10" y="12" width="1" height="1" fill="#0000FF"/>
<rect x="14" y="9" width="1" height="1" fill="#FFFF00"/>
<rect x="15" y="10" width="1" height="1" fill="#FFFF00"/>
<rect x="7" y="12" width="1" height="1" fill="#FFFF00"/>
<rect x="10" y="9" width="1" height="1" fill="#FFFF00"/>
<rect x="16" y="15" width="1" height="1" fill="#FFFF00"/>
<rect x="9" y="10" width="1" height="1" fill="#FFFF00"/>
<rect x="9" y="14" width="1" height="1" fill="#FFFF00"/>
<rect x="12" y="12" width="1" height="1" fill="#FFFF00"/>
<rect x="16" y="11" width="1" height="1" fill="#FFFF00"/>
<rect x="16" y="13" width="1" height="1" fill="#FFFF00"/>
<rect x="15" y="12" width="1" height="1" fill="#FFFF00"/>
<rect x="12" y="15" width="1" height="1" fill="#FFFF00"/>
<rect x="16" y="15" width="1" height="1" fill="#FFFF00"/>
<rect x="7" y="10" width="1" height="1" fill="#FFFF00"/>
<rect x="7" y="14" width="1" height="1" fill="#FFFF00"/>
<rect x="10" y="11" width="1" height="1" fill="#FFFF00"/>
<rect x="8" y="7" width="4" height="1" fill="white"/>
<rect x="10" y="13" width="1" height="1" fill="#FFFF00"/>
<rect x="16" y="9" width="1" height="1" fill="#FFFF00"/>
<rect x="10" y="15" width="1" height="1" fill="#FFFF00"/>
<rect x="14" y="15" width="1" height="1" fill="#FFFF00"/>
<rect x="9" y="12" width="1" height="1" fill="#FFFF00"/>
<rect x="12" y="9" width="1" height="1" fill="#FFFF00"/>
<rect x="8" y="9" width="1" height="1" fill="#FFFF00"/>
<rect x="8" y="7" width="1" height="1" fill="#FFFF00"/>
<rect x="10" y="7" width="1" height="1" fill="#FFFF00"/>
<rect x="8" y="13" width="1" height="1" fill="#FFFF00"/>
<rect x="11" y="10" width="1" height="1" fill="#FFFF00"/>
<rect x="13" y="10" width="1" height="1" fill="#FFFF00"/>
<rect x="14" y="11" width="1" height="1" fill="#FFFF00"/>
<rect x="14" y="13" width="1" height="1" fill="#FFFF00"/>
<rect x="11" y="14" width="1" height="1" fill="#FFFF00"/>
<rect x="13" y="14" width="1" height="1" fill="#FFFF00"/>
<rect x="15" y="14" width="1" height="1" fill="#FFFF00"/>
<rect x="7" y="7" width="1" height="1" fill="black"/>
<rect x="12" y="7" width="1" height="1" fill="black"/>
<rect x="8" y="6" width="4" height="1" fill="black"/>
<rect x="14" y="2" width="1" height="5" fill="black"/>
<rect x="12" y="4" width="5" height="1" fill="black"/>
</svg>
