<svg width="20" height="19" viewBox="0 0 20 19" fill="none" xmlns="http://www.w3.org/2000/svg">
<rect x="3" y="4" width="7" height="9" fill="black"/>
<rect x="4" y="4" width="4" height="3" fill="white"/>
<rect x="9" y="4" width="1" height="2" fill="black"/>
<rect x="10" y="5" width="1" height="1" fill="black"/>
<rect x="9" y="6" width="6" height="10" fill="#000082"/>
<rect x="15" y="9" width="3" height="7" fill="#000082"/>
<rect x="15" y="7" width="1" height="2" fill="#000082"/>
<rect x="16" y="8" width="1" height="1" fill="#000082"/>
<rect x="9" y="5" width="1" height="1" fill="white"/>
<rect x="15" y="8" width="1" height="1" fill="white"/>
<rect x="3" y="3" width="6" height="1" fill="black"/>
<rect x="5" y="6" width="2" height="1" fill="black"/>
<rect x="4" y="7" width="5" height="5" fill="white"/>
<rect x="10" y="10" width="7" height="5" fill="white"/>
<rect x="5" y="8" width="4" height="1" fill="black"/>
<rect x="11" y="11" width="5" height="1" fill="black"/>
<rect x="11" y="13" width="5" height="1" fill="black"/>
<rect x="5" y="10" width="4" height="1" fill="black"/>
<rect x="10" y="7" width="4" height="3" fill="white"/>
<rect x="11" y="9" width="2" height="1" fill="black"/>
</svg>
