<svg width="19" height="19" viewBox="0 0 19 19" fill="none" xmlns="http://www.w3.org/2000/svg">
<rect x="4" y="9" width="11" height="8" fill="black"/>
<rect x="9" y="13" width="1" height="3" fill="#FFFF00"/>
<rect x="5" y="10" width="3" height="6" fill="white"/>
<rect x="11" y="10" width="3" height="6" fill="white"/>
<rect x="8" y="10" width="3" height="2" fill="white"/>
<rect x="12" y="3" width="1" height="3" fill="#820000"/>
<rect x="9" y="8" width="1" height="1" fill="#828200"/>
<rect x="8" y="7" width="1" height="1" fill="#828200"/>
<rect x="6" y="7" width="1" height="1" fill="#828200"/>
<rect x="4" y="8" width="1" height="1" fill="black"/>
<rect x="3" y="9" width="1" height="1" fill="black"/>
<rect x="7" y="7" width="1" height="1" fill="#FFFF00"/>
<rect x="8" y="5" width="1" height="1" fill="#828200"/>
<rect x="6" y="6" width="1" height="1" fill="black"/>
<rect x="8" y="4" width="1" height="1" fill="black"/>
<rect x="10" y="5" width="1" height="1" fill="#828200"/>
<rect x="9" y="5" width="1" height="1" fill="#FFFF00"/>
<rect x="9" y="7" width="1" height="1" fill="#FFFF00"/>
<rect x="7" y="8" width="1" height="1" fill="#828200"/>
<rect x="5" y="8" width="1" height="1" fill="#828200"/>
<rect x="3" y="9" width="1" height="1" fill="black"/>
<rect x="6" y="8" width="1" height="1" fill="#FFFF00"/>
<rect x="9" y="6" width="1" height="1" fill="#828200"/>
<rect x="11" y="6" width="1" height="1" fill="#828200"/>
<rect x="12" y="6" width="1" height="1" fill="black"/>
<rect x="10" y="6" width="1" height="1" fill="#FFFF00"/>
<rect x="10" y="8" width="1" height="1" fill="#FFFF00"/>
<rect x="7" y="6" width="1" height="1" fill="#828200"/>
<rect x="5" y="7" width="1" height="1" fill="black"/>
<rect x="8" y="6" width="1" height="1" fill="#FFFF00"/>
<rect x="8" y="8" width="1" height="1" fill="#FFFF00"/>
<rect x="9" y="4" width="1" height="1" fill="#828200"/>
<rect x="10" y="4" width="1" height="1" fill="black"/>
<rect x="11" y="5" width="1" height="1" fill="black"/>
<rect x="7" y="5" width="1" height="1" fill="black"/>
<rect x="9" y="3" width="1" height="1" fill="black"/>
<rect x="10" y="7" width="1" height="1" fill="#828200"/>
<rect x="12" y="7" width="1" height="1" fill="#828200"/>
<rect x="13" y="7" width="1" height="1" fill="black"/>
<rect x="11" y="7" width="1" height="1" fill="#FFFF00"/>
<rect x="11" y="8" width="1" height="1" fill="#828200"/>
<rect x="13" y="8" width="1" height="1" fill="#828200"/>
<rect x="14" y="8" width="1" height="1" fill="black"/>
<rect x="15" y="9" width="1" height="1" fill="black"/>
<rect x="12" y="8" width="1" height="1" fill="#FFFF00"/>
<rect x="13" y="3" width="1" height="4" fill="black"/>
</svg>
