<svg width="20" height="20" viewBox="0 0 20 20" fill="none" xmlns="http://www.w3.org/2000/svg">
<rect x="2" y="11" width="13" height="1" fill="black"/>
<rect x="2" y="10" width="1" height="5" fill="black"/>
<rect x="3" y="14" width="12" height="1" fill="black"/>
<rect x="4" y="16" width="11" height="1" fill="black"/>
<rect x="14" y="13" width="3" height="1" fill="black"/>
<rect x="17" y="8" width="1" height="4" fill="black"/>
<rect x="7" y="4" width="7" height="5" fill="white"/>
<rect x="13" y="7" width="4" height="1" fill="black"/>
<rect x="3" y="9" width="10" height="1" fill="black"/>
<rect x="7" y="3" width="9" height="1" fill="black"/>
<rect x="6" y="4" width="1" height="2" fill="black"/>
<rect x="5" y="6" width="1" height="2" fill="black"/>
<rect x="7" y="7" width="5" height="1" fill="black"/>
<rect x="8" y="5" width="5" height="1" fill="black"/>
<rect x="14" y="5" width="1" height="2" fill="black"/>
<rect x="15" y="4" width="1" height="1" fill="black"/>
<rect x="13" y="8" width="1" height="1" fill="black"/>
<rect x="14" y="9" width="1" height="1" fill="black"/>
<rect x="15" y="10" width="1" height="1" fill="black"/>
<rect x="16" y="9" width="1" height="1" fill="black"/>
<rect x="16" y="12" width="1" height="1" fill="black"/>
<rect x="14" y="12" width="1" height="1" fill="black"/>
<rect x="15" y="15" width="1" height="1" fill="black"/>
<rect x="13" y="15" width="1" height="1" fill="black"/>
<rect x="3" y="15" width="1" height="1" fill="black"/>
<rect x="4" y="8" width="1" height="1" fill="black"/>
<rect x="16" y="14" width="1" height="1" fill="black"/>
<rect x="15" y="8" width="1" height="1" fill="black"/>
<rect x="13" y="10" width="1" height="1" fill="black"/>
<rect x="9" y="13" width="3" height="1" fill="#FFFF00"/>
<rect x="9" y="12" width="3" height="1" fill="#828282"/>
<rect x="14" y="4" width="1" height="1" fill="white"/>
<rect x="6" y="6" width="1" height="3" fill="white"/>
<rect x="5" y="8" width="1" height="1" fill="white"/>
</svg>
