<svg width="19" height="19" viewBox="0 0 19 19" fill="none" xmlns="http://www.w3.org/2000/svg">
<rect x="5" y="6" width="9" height="10" fill="white"/>
<rect x="9" y="3" width="3" height="3" fill="white"/>
<rect x="12" y="5" width="1" height="1" fill="white"/>
<rect x="8" y="4" width="1" height="1" fill="white"/>
<rect x="7" y="5" width="1" height="1" fill="white"/>
<rect x="4" y="8" width="1" height="1" fill="white"/>
<rect x="4" y="11" width="1" height="1" fill="white"/>
<rect x="14" y="7" width="2" height="5" fill="white"/>
<rect x="16" y="9" width="1" height="1" fill="white"/>
<rect x="3" y="8" width="1" height="1" fill="black"/>
<rect x="4" y="9" width="1" height="1" fill="black"/>
<rect x="3" y="10" width="1" height="3" fill="black"/>
<rect x="7" y="17" width="5" height="1" fill="black"/>
<rect x="10" y="15" width="1" height="2" fill="black"/>
<rect x="5" y="16" width="2" height="1" fill="black"/>
<rect x="17" y="9" width="1" height="3" fill="black"/>
<rect x="9" y="2" width="2" height="1" fill="black"/>
<rect x="5" y="10" width="1" height="1" fill="black"/>
<rect x="5" y="13" width="1" height="1" fill="black"/>
<rect x="8" y="10" width="1" height="1" fill="black"/>
<rect x="9" y="9" width="1" height="1" fill="black"/>
<rect x="10" y="8" width="1" height="1" fill="black"/>
<rect x="11" y="3" width="1" height="1" fill="black"/>
<rect x="4" y="13" width="1" height="1" fill="black"/>
<rect x="4" y="15" width="1" height="1" fill="black"/>
<rect x="3" y="14" width="1" height="1" fill="black"/>
<rect x="6" y="11" width="1" height="1" fill="black"/>
<rect x="6" y="14" width="1" height="1" fill="black"/>
<rect x="9" y="11" width="1" height="1" fill="black"/>
<rect x="10" y="10" width="1" height="1" fill="black"/>
<rect x="11" y="9" width="1" height="1" fill="black"/>
<rect x="12" y="4" width="1" height="1" fill="black"/>
<rect x="7" y="12" width="1" height="1" fill="black"/>
<rect x="7" y="15" width="1" height="1" fill="black"/>
<rect x="10" y="12" width="1" height="1" fill="black"/>
<rect x="11" y="11" width="1" height="1" fill="black"/>
<rect x="12" y="10" width="1" height="1" fill="black"/>
<rect x="13" y="5" width="1" height="1" fill="black"/>
<rect x="15" y="7" width="1" height="1" fill="black"/>
<rect x="14" y="8" width="1" height="1" fill="black"/>
<rect x="13" y="9" width="1" height="1" fill="black"/>
<rect x="8" y="13" width="1" height="1" fill="black"/>
<rect x="9" y="14" width="1" height="1" fill="black"/>
<rect x="8" y="16" width="1" height="1" fill="black"/>
<rect x="11" y="13" width="1" height="1" fill="black"/>
<rect x="12" y="16" width="1" height="1" fill="black"/>
<rect x="4" y="7" width="1" height="1" fill="black"/>
<rect x="12" y="12" width="1" height="1" fill="black"/>
<rect x="13" y="15" width="1" height="1" fill="black"/>
<rect x="5" y="6" width="1" height="1" fill="black"/>
<rect x="6" y="7" width="1" height="1" fill="black"/>
<rect x="13" y="11" width="1" height="1" fill="black"/>
<rect x="14" y="14" width="1" height="1" fill="black"/>
<rect x="6" y="5" width="1" height="1" fill="black"/>
<rect x="7" y="6" width="1" height="1" fill="black"/>
<rect x="14" y="6" width="1" height="1" fill="black"/>
<rect x="16" y="8" width="1" height="1" fill="black"/>
<rect x="15" y="9" width="1" height="1" fill="black"/>
<rect x="16" y="12" width="1" height="1" fill="black"/>
<rect x="8" y="3" width="1" height="1" fill="black"/>
<rect x="9" y="4" width="1" height="1" fill="black"/>
<rect x="14" y="10" width="1" height="1" fill="black"/>
<rect x="15" y="13" width="1" height="1" fill="black"/>
<rect x="7" y="4" width="1" height="1" fill="black"/>
<rect x="8" y="5" width="1" height="1" fill="black"/>
<rect x="4" y="10" width="1" height="1" fill="#828282"/>
<rect x="4" y="12" width="1" height="1" fill="#828282"/>
<rect x="4" y="14" width="1" height="1" fill="#828282"/>
<rect x="5" y="15" width="1" height="1" fill="#828282"/>
<rect x="7" y="16" width="1" height="1" fill="#828282"/>
<rect x="5" y="11" width="1" height="1" fill="#828282"/>
<rect x="11" y="7" width="1" height="1" fill="#828282"/>
<rect x="8" y="6" width="1" height="1" fill="#828282"/>
<rect x="6" y="8" width="1" height="1" fill="#828282"/>
<rect x="11" y="16" width="1" height="1" fill="#828282"/>
<rect x="13" y="14" width="1" height="1" fill="#828282"/>
<rect x="15" y="12" width="1" height="1" fill="#828282"/>
<rect x="12" y="8" width="1" height="1" fill="#828282"/>
<rect x="12" y="6" width="1" height="1" fill="#828282"/>
<rect x="9" y="5" width="1" height="1" fill="#828282"/>
<rect x="7" y="7" width="1" height="1" fill="#828282"/>
<rect x="12" y="15" width="1" height="1" fill="#828282"/>
<rect x="14" y="13" width="1" height="1" fill="#828282"/>
<rect x="16" y="11" width="1" height="1" fill="#828282"/>
<rect x="13" y="7" width="1" height="1" fill="#828282"/>
<rect x="6" y="12" width="1" height="1" fill="#828282"/>
<rect x="7" y="13" width="1" height="1" fill="#828282"/>
<rect x="8" y="14" width="1" height="1" fill="#828282"/>
<rect x="9" y="15" width="1" height="2" fill="#828282"/>
<rect x="7" y="8" width="1" height="1" fill="#C3C3C3"/>
<rect x="13" y="13" width="1" height="1" fill="#C3C3C3"/>
<rect x="11" y="15" width="1" height="1" fill="#C3C3C3"/>
<rect x="8" y="7" width="1" height="1" fill="#C3C3C3"/>
<rect x="14" y="12" width="1" height="1" fill="#C3C3C3"/>
<rect x="12" y="14" width="1" height="1" fill="#C3C3C3"/>
<rect x="6" y="15" width="1" height="1" fill="#C3C3C3"/>
<rect x="5" y="14" width="1" height="1" fill="#C3C3C3"/>
<rect x="9" y="6" width="1" height="1" fill="#C3C3C3"/>
<rect x="15" y="11" width="1" height="1" fill="#C3C3C3"/>
<rect x="10" y="5" width="1" height="1" fill="#C3C3C3"/>
<rect x="16" y="10" width="1" height="1" fill="#C3C3C3"/>
<rect x="12" y="7" width="1" height="1" fill="#C3C3C3"/>
</svg>
