<svg width="20" height="19" viewBox="0 0 20 19" fill="none" xmlns="http://www.w3.org/2000/svg">
<rect x="10" y="10" width="2" height="4" fill="black"/>
<rect x="8" y="6" width="2" height="3" fill="black"/>
<rect x="12" y="14" width="2" height="3" fill="black"/>
<rect x="2" y="16" width="5" height="1" fill="black"/>
<rect x="4" y="13" width="6" height="1" fill="black"/>
<rect x="7" y="7" width="1" height="3" fill="black"/>
<rect x="6" y="9" width="1" height="3" fill="black"/>
<rect x="5" y="11" width="1" height="2" fill="black"/>
<rect x="3" y="15" width="2" height="1" fill="black"/>
<rect x="9" y="9" width="1" height="2" fill="black"/>
<rect x="10" y="8" width="1" height="2" fill="black"/>
<rect x="12" y="12" width="1" height="2" fill="black"/>
<rect x="14" y="16" width="2" height="1" fill="black"/>
<rect x="8" y="5" width="1" height="1" fill="black"/>
<rect x="4" y="14" width="1" height="1" fill="black"/>
<rect x="11" y="16" width="1" height="1" fill="black"/>
<rect x="11" y="14" width="1" height="1" fill="black"/>
<rect x="13" y="4" width="5" height="1" fill="#760000"/>
<rect x="14" y="3" width="3" height="1" fill="#760000"/>
<rect x="15" y="2" width="1" height="1" fill="#760000"/>
</svg>
