<svg width="10" height="10" viewBox="0 0 10 10" fill="none" xmlns="http://www.w3.org/2000/svg">
<rect width="10" height="10" fill="#DEE0E2"/>
<rect x="6" y="6" width="2" height="2" fill="#F0F1F2"/>
<rect x="1" y="1" width="2" height="2" fill="#F0F1F2"/>
<rect x="6" y="1" width="2" height="2" fill="#C0C4C8"/>
<rect x="1" y="6" width="2" height="2" fill="#C0C4C8"/>
<rect x="5" y="6" width="1" height="2" fill="#C0C4C8"/>
<rect y="1" width="1" height="2" fill="#C0C4C8"/>
<rect x="5" y="1" width="1" height="2" fill="#FCFCFC"/>
<rect y="6" width="1" height="2" fill="#FCFCFC"/>
<rect x="8" y="6" width="1" height="2" fill="#C0C4C8"/>
<rect x="3" y="1" width="1" height="2" fill="#C0C4C8"/>
<rect x="8" y="1" width="1" height="2" fill="#FCFCFC"/>
<rect x="3" y="6" width="1" height="2" fill="#FCFCFC"/>
<rect x="6" y="5" width="2" height="1" fill="#C0C4C8"/>
<rect x="1" width="2" height="1" fill="#C0C4C8"/>
<rect x="6" width="2" height="1" fill="#FCFCFC"/>
<rect x="1" y="5" width="2" height="1" fill="#FCFCFC"/>
<rect x="6" y="8" width="2" height="1" fill="#C0C4C8"/>
<rect x="1" y="3" width="2" height="1" fill="#C0C4C8"/>
<rect x="6" y="3" width="2" height="1" fill="#FCFCFC"/>
<rect x="1" y="8" width="2" height="1" fill="#FCFCFC"/>
<rect x="5" y="5" width="1" height="1" fill="#FCFCFC"/>
<rect width="1" height="1" fill="#FCFCFC"/>
<rect x="5" width="1" height="1" fill="#C0C4C8"/>
<rect y="5" width="1" height="1" fill="#C0C4C8"/>
<rect x="8" y="5" width="1" height="1" fill="#FCFCFC"/>
<rect x="3" width="1" height="1" fill="#FCFCFC"/>
<rect x="8" width="1" height="1" fill="#C0C4C8"/>
<rect x="3" y="5" width="1" height="1" fill="#C0C4C8"/>
<rect x="8" y="8" width="1" height="1" fill="#FCFCFC"/>
<rect x="3" y="3" width="1" height="1" fill="#FCFCFC"/>
<rect x="8" y="3" width="1" height="1" fill="#C0C4C8"/>
<rect x="3" y="8" width="1" height="1" fill="#C0C4C8"/>
<rect x="5" y="8" width="1" height="1" fill="#FCFCFC"/>
<rect y="3" width="1" height="1" fill="#FCFCFC"/>
<rect x="5" y="3" width="1" height="1" fill="#C0C4C8"/>
<rect y="8" width="1" height="1" fill="#C0C4C8"/>
</svg>
