<svg width="430" height="392" viewBox="0 0 430 392" fill="none" xmlns="http://www.w3.org/2000/svg">
<g filter="url(#filter0_d)">
<path d="M282.85 240.163L346 88.1201C318.296 57.4309 283.837 42.3895 242.458 43.1743L178.904 196.62C217.702 191.472 252.137 206.097 282.85 240.163Z" fill="black"/>
<path d="M238.878 43.1743L215.514 44.5535L207.595 63.9588L230.959 61.7709L238.878 43.1743Z" fill="black"/>
<path d="M229.58 65.1597L206.406 66.7412L198.309 86.1464L221.852 83.9704L229.58 65.1597Z" fill="black"/>
<path d="M220.472 87.3354L197.322 88.7028L189.188 107.93L212.743 106.134L220.472 87.3354Z" fill="black"/>
<path d="M211.377 109.499L188 110.89L180.093 130.094L203.458 128.108L211.377 109.499Z" fill="black"/>
<path d="M202.268 131.271L178.904 132.662L170.973 151.877L194.528 149.891L202.268 131.271Z" fill="black"/>
<path d="M192.958 153.839L169.581 155.242L161.674 174.647L185.039 172.661L192.958 153.839Z" fill="black"/>
<path d="M183.636 176.026L160.473 177.429L152.364 196.811L175.907 194.623L183.636 176.026Z" fill="black"/>
<path d="M190.972 42.1755L183.635 59.809L205.216 58.0255L212.553 40.6179L190.972 42.1755Z" fill="black"/>
<path d="M163.636 108.12L156.109 125.742L178.095 123.958L185.217 106.336L163.636 108.12Z" fill="black"/>
<path d="M150.58 189.867L157.893 172.447L136.335 174.017L128.999 191.448L150.58 189.867Z" fill="black"/>
<path d="M189.985 32.4847L171.769 33.2814L165.241 48.9292L183.647 47.9185L189.985 32.4847Z" fill="black"/>
<path d="M162.661 98.6076L144.255 99.1902L137.917 114.838L156.347 113.863L162.661 98.6076Z" fill="black"/>
<path d="M128.999 179.796L135.337 164.35L117.121 165.135L110.593 180.545L128.999 179.796Z" fill="black"/>
<path d="M153.553 26.7298L149.011 37.8236L163.648 37.2172L168.405 25.945L153.553 26.7298Z" fill="black"/>
<path d="M141.08 91.6873L126.217 92.484L121.473 103.578L136.336 103.209L141.08 91.6873Z" fill="black"/>
<path d="M98.7263 158.393L94.1484 169.689L109 169.094L113.756 157.62L98.7263 158.393Z" fill="black"/>
<path d="M147.025 20.2138L150.985 10.7015L139.701 12.2948L135.932 21.5931L147.025 20.2138Z" fill="black"/>
<path d="M112.365 78.2154L108.405 87.5375L119.487 86.1463L123.649 76.4318L112.365 78.2154Z" fill="black"/>
<path d="M84.8498 144.148L81.2827 153.268L92.3765 152.055L96.336 142.364L84.8498 144.148Z" fill="black"/>
<path d="M126.217 0.796703L123.458 7.13432L131.948 6.93212L134.932 0L126.217 0.796703Z" fill="black"/>
<path d="M99.095 66.3488L96.3364 72.8647H104.648L107.609 65.9326L99.095 66.3488Z" fill="black"/>
<path d="M71.5802 132.472L69 139.023L77.3233 138.797L80.0938 131.865L71.5802 132.472Z" fill="black"/>
<path d="M196.12 80.3914L203.254 62.9719L181.673 64.5414L174.337 82.1631L196.12 80.3914Z" fill="#ED5601"/>
<path d="M187.191 101.77L194.527 84.1488L172.756 85.9205L165.622 103.34L187.191 101.77Z" fill="#ED5601"/>
<path d="M154.136 130.474L147.013 148.084L168.785 146.348L175.931 128.702L154.136 130.474Z" fill="#1D74C4"/>
<path d="M145.23 151.877L138.107 169.487L159.903 167.703L167.215 150.081L145.23 151.877Z" fill="#1D74C4"/>
<path d="M162.459 55.8376L155.931 71.2833L174.337 70.2964L180.698 55.041L162.459 55.8376Z" fill="#ED5601"/>
<path d="M153.553 77.0383L147.215 92.6742L165.622 91.6873L171.959 76.4319L153.553 77.0383Z" fill="#ED5601"/>
<path d="M134.944 121.782L128.417 137.418L147.025 136.443L153.351 121.009L134.944 121.782Z" fill="#1D74C4"/>
<path d="M126.217 143.161L119.879 158.405L138.095 157.632L144.623 142.186L126.217 143.161Z" fill="#1D74C4"/>
<path d="M144.255 49.1076L139.701 60.1895L154.35 59.6188L159.106 48.3229L144.255 49.1076Z" fill="#ED5601"/>
<path d="M135.337 70.3083L130.783 81.4021L145.646 80.9978L150.379 69.3214L135.337 70.3083Z" fill="#ED5601"/>
<path d="M116.93 114.838L112.186 126.134L127.239 125.539L131.793 114.041L116.93 114.838Z" fill="#1D74C4"/>
<path d="M108.025 136.241L103.459 147.525L118.322 146.93L122.864 135.444L108.025 136.241Z" fill="#1D74C4"/>
<path d="M130.378 34.6607L126.419 43.9828L137.691 42.5917L141.651 32.9009L130.378 34.6607Z" fill="#ED5601"/>
<path d="M121.473 56.0636L117.513 65.3619L128.797 63.9826L132.959 54.2919L121.473 56.0636Z" fill="#ED5601"/>
<path d="M103.066 100.605L99.3203 109.892L110.39 108.524L114.362 99.0237L103.066 100.605Z" fill="#1D74C4"/>
<path d="M94.1478 121.972L90.4023 131.271L101.472 129.891L105.432 120.189L94.1478 121.972Z" fill="#1D74C4"/>
<path d="M117.121 22.9725L114.35 29.5122L122.673 29.31L125.432 22.3898L117.121 22.9725Z" fill="#ED5601"/>
<path d="M108.215 44.1493L105.635 50.6891H113.744L116.515 43.757L108.215 44.1493Z" fill="#ED5601"/>
<path d="M89.7964 88.9049L87.0259 95.2425L95.3373 95.0523L98.0959 88.5244L89.7964 88.9049Z" fill="#1D74C4"/>
<path d="M80.8906 110.296L78.1201 116.824L86.4435 116.633L89.3923 109.88L80.8906 110.296Z" fill="#1D74C4"/>
<path d="M252.351 117.406L272.541 68.9052C262.648 65.5283 249.569 64.1609 233.35 64.5414L213.338 112.864C228.19 112.258 241.269 113.875 252.351 117.406Z" fill="#ED5601"/>
<path d="M319.068 92.0797C309.96 82.7695 299.259 76.2416 287 72.2702L266.405 121.972L280.258 127.715C285.585 129.879 291.732 134.255 298.854 140.985L319.068 92.0797Z" fill="#539940"/>
<path d="M292.933 154.861C283.813 145.73 272.933 139.594 260.46 136.241L240.662 183.945C252.136 187.917 262.85 194.445 273.147 203.148L292.933 154.861Z" fill="#F2C000"/>
<path d="M227 178.797L246.191 132.472C234.11 128.512 221.067 126.931 207.202 127.918L187.607 174.861C199.283 174.231 212.351 175.646 227 178.797Z" fill="#1D74C4"/>
<path d="M346.132 294.601L351.967 292.55C354.38 297.718 358.44 300.303 364.146 300.303C369.683 300.303 373.842 298.06 376.624 293.575C379.435 289.09 380.883 283.006 380.968 275.321C377.164 282.048 371.443 285.412 363.806 285.412C358.411 285.412 353.883 283.648 350.221 280.12C346.558 276.565 344.727 272.176 344.727 266.953C344.727 261.647 346.643 257.108 350.476 253.334C354.337 249.56 359.249 247.673 365.211 247.673C372.507 247.673 378.1 250.148 381.99 255.098C385.879 260.02 387.824 266.802 387.824 275.444C387.824 284.523 385.766 291.88 381.649 297.513C377.533 303.12 371.67 305.923 364.061 305.923C355.175 305.923 349.199 302.149 346.132 294.601ZM365.424 279.792C369.427 279.792 372.777 278.452 375.474 275.772C378.2 273.065 379.563 269.906 379.563 266.296C379.563 262.796 378.271 259.788 375.687 257.272C373.132 254.756 369.754 253.498 365.552 253.498C361.293 253.498 357.929 254.797 355.459 257.395C352.989 259.965 351.754 263.11 351.754 266.83C351.754 270.822 353.117 273.981 355.842 276.305C358.596 278.63 361.79 279.792 365.424 279.792Z" fill="white"/>
<path d="M423.124 248.821L422.528 254.851H393.953L392.718 273.024C397.033 268.949 401.775 266.912 406.942 266.912C412.393 266.912 417.091 268.73 421.038 272.367C425.012 276.005 427 280.654 427 286.315C427 292.058 424.842 296.761 420.527 300.426C416.24 304.09 410.987 305.923 404.77 305.923C399.886 305.923 395.543 304.692 391.738 302.231C387.934 299.77 385.436 296.584 384.243 292.673L390.461 290.622C393.016 297.13 397.814 300.385 404.855 300.385C409.483 300.385 413.159 299.072 415.885 296.447C418.61 293.794 419.973 290.417 419.973 286.315C419.973 282.021 418.624 278.671 415.927 276.264C413.23 273.858 409.994 272.655 406.218 272.655C400.71 272.655 396.153 275.198 392.547 280.285L386.798 279.095L388.672 248.821H423.124Z" fill="white"/>
<path d="M30.6189 251.094V219.615H25.0348L15.3854 246.109L5.58409 219.615H0V251.094H3.29577V222.931L13.6286 251.094H16.3878L26.8776 223.195V251.094H30.6189Z" fill="white"/>
<path d="M37.8936 223.105H41.3362V219.61H37.8936V223.105ZM37.8936 251.094H41.3362V227.827H37.8936V251.094Z" fill="white"/>
<path d="M56.879 230.101C58.3371 230.101 59.5572 230.628 60.4735 231.675C61.5468 232.728 62.1594 234.217 62.3872 235.96L65.6779 235.434C65.2931 232.902 64.2958 230.796 62.8428 229.312C61.3139 227.912 59.4002 227.122 57.1777 227.122C53.9579 227.122 51.4418 228.259 49.518 230.533C47.6043 232.902 46.6069 235.786 46.6069 239.456C46.6069 243.215 47.4524 246.189 49.2851 248.378C51.1178 250.652 53.5731 251.794 56.631 251.794C59.0053 251.794 61 251.094 62.5998 249.61C64.1287 248.21 65.202 246.194 65.6627 243.656L62.4479 243.046C62.1391 244.883 61.4506 246.367 60.4533 247.326C59.38 248.289 58.1548 248.726 56.7069 248.726C54.7932 248.726 53.2592 247.936 52.0341 246.184C50.8899 244.525 50.3533 242.251 50.3533 239.451C50.3533 236.655 50.8899 234.381 52.1151 232.629C53.3554 230.98 54.9654 230.101 56.879 230.101Z" fill="white"/>
<path d="M82.1364 227.212L80.9112 227.122C79.2304 227.122 77.8534 227.648 76.7801 228.612C75.6309 229.486 74.7095 230.975 74.026 232.986V227.822H70.6543V251.089H74.1779V239.366C74.1779 236.745 74.8664 234.649 76.1726 233.066C77.4737 231.497 79.2355 230.702 81.6099 230.702H82.1414L82.1364 227.212Z" fill="white"/>
<path d="M101.815 248.373C103.81 246.099 104.726 243.13 104.726 239.451C104.726 235.782 103.81 232.807 101.815 230.528C99.9013 228.259 97.375 227.117 94.0894 227.117C90.9505 227.117 88.4243 228.254 86.4296 230.528C84.5159 232.807 83.5186 235.782 83.5186 239.451C83.5186 243.125 84.5159 246.099 86.4296 248.373C88.4243 250.648 90.9404 251.79 94.0894 251.79C97.2991 251.79 99.8152 250.657 101.815 248.373ZM94.0843 230.101C96.2258 230.101 97.8357 230.891 98.9799 232.634C100.281 234.297 100.894 236.571 100.894 239.456C100.894 242.351 100.281 244.615 98.9799 246.367C97.8306 248.026 96.1498 248.9 94.0843 248.9C92.0137 248.9 90.4088 248.026 89.1786 246.367C87.9585 244.709 87.3409 242.435 87.3409 239.456C87.3409 236.487 87.9534 234.213 89.1077 232.634C90.3329 230.891 92.0137 230.101 94.0843 230.101Z" fill="white"/>
<path d="M117.2 237.36C113.757 236.576 111.99 235.434 111.99 233.776C111.99 232.639 112.375 231.76 113.292 231.069C114.137 230.449 115.357 230.101 116.815 230.101C118.268 230.101 119.498 230.449 120.339 231.069C121.25 231.675 121.868 232.643 122.247 233.776L125.462 233.075C124.931 231.149 123.862 229.664 122.404 228.706C120.951 227.658 119.109 227.127 116.962 227.127C114.436 227.127 112.37 227.827 110.841 229.143C109.312 230.449 108.467 232.112 108.467 234.212C108.467 235.96 109.003 237.36 110.072 238.324C111.216 239.292 113.211 240.161 116.046 240.767L117.271 241.03C120.946 241.988 122.784 243.304 122.784 244.962C122.784 246.099 122.323 247.063 121.326 247.763C120.329 248.547 119.022 248.895 117.494 248.895C115.808 248.895 114.436 248.547 113.211 247.763C112.066 246.889 111.216 245.836 110.765 244.436L107.626 245.057C108.158 247.152 109.312 248.815 110.993 249.952C112.76 251.169 114.896 251.785 117.504 251.785C120.182 251.785 122.323 251.084 124.009 249.689C125.619 248.378 126.535 246.536 126.535 244.525C126.535 242.778 125.918 241.377 124.769 240.414C123.695 239.361 121.858 238.488 119.255 237.797L117.2 237.36Z" fill="white"/>
<path d="M132.358 230.533C130.363 232.723 129.366 235.786 129.366 239.456C129.366 243.13 130.363 246.104 132.358 248.378C134.271 250.652 136.798 251.79 140.012 251.79C143.151 251.79 145.753 250.652 147.748 248.378C149.652 246.104 150.654 243.135 150.654 239.456C150.654 235.786 149.657 232.812 147.748 230.533C145.834 228.264 143.227 227.122 140.012 227.122C136.798 227.122 134.271 228.264 132.358 230.533ZM135.036 246.367C133.811 244.62 133.198 242.346 133.198 239.456C133.198 236.571 133.811 234.297 135.036 232.634C136.19 230.886 137.871 230.101 140.012 230.101C142.083 230.101 143.688 230.891 144.989 232.634C146.133 234.297 146.822 236.571 146.822 239.456C146.822 242.351 146.133 244.615 144.908 246.367C143.683 248.026 142.073 248.9 140.012 248.9C137.871 248.905 136.261 248.031 135.036 246.367Z" fill="white"/>
<path d="M160.374 227.827C160.374 227.653 160.374 227.564 160.298 227.395V226.963C160.298 225.3 160.683 223.989 161.372 223.289C161.984 222.499 163.058 222.063 164.511 222.063L167.422 222.415V219.52L163.898 219.173C161.529 219.173 159.767 219.873 158.618 221.273C157.463 222.579 156.851 224.774 156.851 227.658V227.832H152.639V230.374H156.851V251.099H160.369V230.374H166.034V227.832H160.374V227.827Z" fill="white"/>
<path d="M173.538 227.827V221.973L169.943 222.316V227.822H165.883V230.364H169.943V242.435C169.943 244.709 170.014 246.194 170.247 247.072C170.323 247.773 170.556 248.468 170.935 248.994C171.624 249.962 172.464 250.657 173.462 251.094C174.307 251.526 175.532 251.794 177.061 251.794L179.972 251.447V248.473L177.522 248.736C175.988 248.736 174.925 248.388 174.383 247.604C173.765 246.814 173.538 245.151 173.538 242.624V230.379H179.127V227.837H173.538V227.827Z" fill="white"/>
<path d="M103.33 249.059H89.4676L81.1607 281.604L72.9315 249.059H58.6204L50.9093 281.996L42.755 249.059H25.623L41.2007 305.411H56.7696L64.4807 273.346L72.4134 305.408H87.6888L103.33 249.059Z" fill="black"/>
<path d="M99.7724 260.331H116.899V249.056H99.7724V260.331ZM116.896 263.664H99.7695V305.408H116.896V263.664Z" fill="black"/>
<path d="M134.77 279.774C134.77 277.871 135.138 276.441 135.959 275.41C136.773 274.291 137.887 273.819 139.367 273.819C140.777 273.819 141.741 274.291 142.406 275.249C143.077 276.202 143.368 277.71 143.368 279.69V305.406H159.904V277.943C159.904 272.549 158.796 268.661 156.568 266.197C154.343 263.736 150.782 262.541 145.967 262.541C143.149 262.541 140.63 263.177 138.552 264.369C136.474 265.483 134.842 267.224 133.581 269.605V263.655H118.234V305.403H134.77V279.774Z" fill="black"/>
<path d="M203.654 249.059H187.043V267.23C185.708 265.65 184.151 264.455 182.441 263.741C180.815 262.95 178.961 262.55 176.736 262.55C171.474 262.55 167.246 264.539 164.057 268.586C160.94 272.555 159.313 277.871 159.313 284.618C159.313 291.365 160.868 296.762 163.91 300.731C166.95 304.617 171.1 306.522 176.365 306.522C178.886 306.522 181.105 306.044 183.04 305.017C184.962 303.903 186.594 302.317 187.927 300.17L188.002 305.408H203.646V249.059H203.654ZM182.003 273.03C183.71 273.03 185.049 273.505 185.858 274.374C186.678 275.41 187.046 276.677 187.046 278.346V290.251C187.046 291.837 186.678 293.187 185.708 294.143C184.818 295.176 183.71 295.723 182.3 295.723C180.374 295.723 179.039 294.856 178.152 293.109C177.263 291.44 176.817 288.746 176.817 284.854C176.817 280.81 177.263 277.791 178.152 275.966C178.964 274.057 180.294 273.03 182.003 273.03Z" fill="black"/>
<path d="M243.027 268.586C238.724 264.614 233.088 262.55 226.12 262.55C219.076 262.55 213.512 264.614 209.137 268.586C204.837 272.633 202.687 277.949 202.687 284.537C202.687 291.129 204.837 296.442 209.212 300.489C213.51 304.542 219.076 306.522 226.117 306.522C233.088 306.522 238.721 304.542 243.024 300.489C247.322 296.442 249.475 291.129 249.475 284.537C249.48 277.949 247.327 272.63 243.027 268.586ZM220.34 284.537C220.34 280.565 220.78 277.71 221.67 275.807C222.565 273.98 224.122 273.03 226.123 273.03C228.12 273.03 229.53 273.98 230.498 275.807C231.393 277.71 231.905 280.568 231.905 284.537C231.905 288.504 231.39 291.365 230.498 293.27C229.53 295.092 228.123 296.048 226.123 296.048C224.122 296.048 222.565 295.092 221.67 293.27C220.78 291.523 220.34 288.582 220.34 284.537Z" fill="black"/>
<path d="M307.091 263.664H295.445L289.294 284.693L283.88 263.664H271.351L266.086 284.137L260.082 263.664H243.618L257.405 305.408H269.494L275.429 282.074L281.212 305.408H293.445L307.091 263.664Z" fill="black"/>
<path d="M307.537 266.358C303.902 268.98 302.048 272.552 302.048 276.838C302.048 278.663 302.494 280.41 303.309 281.996C304.198 283.665 305.39 285.015 306.869 286.046C309.319 287.943 313.391 289.298 319.249 290.332L323.771 290.968C327.253 291.368 329.035 292.231 329.035 293.509C329.035 294.301 328.514 295.095 327.403 295.49C326.289 296.051 324.813 296.287 322.959 296.287C320.213 296.287 317.985 295.887 316.503 295.095C314.946 294.304 313.912 293.112 313.538 291.604L299.967 293.19C301.156 297.473 303.602 300.65 307.459 302.875C311.241 305.095 316.204 306.209 322.285 306.209C328.814 306.209 334.081 304.775 338.079 301.998C342.086 299.295 344.089 295.723 344.089 291.281C344.089 289.612 343.715 287.943 343.047 286.357C342.454 284.929 341.49 283.66 340.154 282.468C338.079 280.724 334.372 279.371 329.032 278.418L323.25 277.543C318.875 276.99 316.578 276.038 316.578 274.688C316.578 273.816 317.024 273.18 317.841 272.708C318.656 272.307 319.839 272.071 321.396 272.071C323.474 272.071 325.175 272.388 326.37 273.027C327.556 273.583 328.589 274.455 329.335 275.727L342.31 273.583C340.825 270.008 338.378 267.227 334.967 265.247C331.629 263.347 327.334 262.394 322.214 262.394C316.06 262.394 311.247 263.744 307.537 266.358Z" fill="black"/>
</g>
<path d="M44.0088 358V342.252H49.1113C51.0449 342.252 52.3053 342.331 52.8926 342.488C53.7949 342.725 54.5505 343.24 55.1592 344.035C55.7679 344.823 56.0723 345.843 56.0723 347.097C56.0723 348.063 55.8968 348.876 55.5459 349.535C55.195 350.194 54.7474 350.713 54.2031 351.093C53.666 351.465 53.1182 351.712 52.5596 351.834C51.8005 351.984 50.7012 352.06 49.2617 352.06H47.1885V358H44.0088ZM47.1885 344.916V349.385H48.9287C50.182 349.385 51.0199 349.302 51.4424 349.138C51.8649 348.973 52.1943 348.715 52.4307 348.364C52.6742 348.013 52.7959 347.605 52.7959 347.14C52.7959 346.567 52.6276 346.094 52.291 345.722C51.9544 345.349 51.5283 345.117 51.0127 345.023C50.6331 344.952 49.8704 344.916 48.7246 344.916H47.1885ZM58.6611 358V342.252H61.6797V358H58.6611ZM71.3906 354.369L74.3984 354.874C74.0117 355.977 73.3994 356.818 72.5615 357.398C71.7308 357.971 70.6888 358.258 69.4355 358.258C67.4518 358.258 65.9837 357.61 65.0312 356.313C64.2793 355.275 63.9033 353.965 63.9033 352.382C63.9033 350.491 64.3975 349.012 65.3857 347.945C66.374 346.871 67.6237 346.334 69.1348 346.334C70.832 346.334 72.1712 346.896 73.1523 348.021C74.1335 349.138 74.6025 350.853 74.5596 353.166H66.9971C67.0186 354.061 67.262 354.759 67.7275 355.261C68.193 355.755 68.7731 356.002 69.4678 356.002C69.9404 356.002 70.3379 355.873 70.6602 355.615C70.9824 355.357 71.2259 354.942 71.3906 354.369ZM71.5625 351.318C71.541 350.445 71.3154 349.782 70.8857 349.331C70.4561 348.873 69.9333 348.644 69.3174 348.644C68.6585 348.644 68.1143 348.883 67.6846 349.363C67.2549 349.843 67.0436 350.495 67.0508 351.318H71.5625ZM79.2861 350.072L76.5469 349.578C76.8548 348.475 77.3848 347.659 78.1367 347.129C78.8887 346.599 80.0059 346.334 81.4883 346.334C82.8346 346.334 83.8372 346.495 84.4961 346.817C85.1549 347.132 85.6169 347.537 85.8818 348.031C86.154 348.518 86.29 349.417 86.29 350.728L86.2578 354.251C86.2578 355.254 86.3044 355.995 86.3975 356.475C86.4977 356.947 86.6803 357.456 86.9453 358H83.959C83.8802 357.799 83.7835 357.502 83.6689 357.108C83.6188 356.929 83.583 356.811 83.5615 356.754C83.0459 357.255 82.4945 357.631 81.9072 357.882C81.32 358.132 80.6934 358.258 80.0273 358.258C78.8529 358.258 77.9255 357.939 77.2451 357.302C76.5719 356.664 76.2354 355.859 76.2354 354.885C76.2354 354.24 76.3893 353.667 76.6973 353.166C77.0052 352.658 77.4349 352.271 77.9863 352.006C78.5449 351.734 79.347 351.497 80.3926 351.297C81.8034 351.032 82.7809 350.785 83.3252 350.556V350.255C83.3252 349.675 83.182 349.263 82.8955 349.02C82.609 348.769 82.0684 348.644 81.2734 348.644C80.7363 348.644 80.3174 348.751 80.0166 348.966C79.7158 349.174 79.4723 349.542 79.2861 350.072ZM83.3252 352.521C82.9385 352.65 82.3262 352.804 81.4883 352.983C80.6504 353.162 80.1025 353.338 79.8447 353.51C79.4508 353.789 79.2539 354.144 79.2539 354.573C79.2539 354.996 79.4115 355.361 79.7266 355.669C80.0417 355.977 80.4427 356.131 80.9297 356.131C81.474 356.131 81.9932 355.952 82.4873 355.594C82.8525 355.322 83.0924 354.989 83.207 354.595C83.2858 354.337 83.3252 353.846 83.3252 353.123V352.521ZM88.2129 354.745L91.2422 354.283C91.3711 354.87 91.6325 355.318 92.0264 355.626C92.4202 355.927 92.9717 356.077 93.6807 356.077C94.4613 356.077 95.0485 355.934 95.4424 355.647C95.7074 355.447 95.8398 355.178 95.8398 354.842C95.8398 354.613 95.7682 354.423 95.625 354.272C95.4746 354.129 95.138 353.997 94.6152 353.875C92.1803 353.338 90.637 352.847 89.9854 352.403C89.083 351.787 88.6318 350.932 88.6318 349.836C88.6318 348.848 89.0221 348.017 89.8027 347.344C90.5833 346.671 91.7936 346.334 93.4336 346.334C94.9948 346.334 96.1549 346.588 96.9141 347.097C97.6732 347.605 98.196 348.357 98.4824 349.353L95.6357 349.879C95.514 349.435 95.2812 349.095 94.9375 348.858C94.6009 348.622 94.1175 348.504 93.4873 348.504C92.6924 348.504 92.123 348.615 91.7793 348.837C91.5501 348.994 91.4355 349.199 91.4355 349.449C91.4355 349.664 91.5358 349.847 91.7363 349.997C92.0085 350.198 92.9466 350.48 94.5508 350.846C96.1621 351.211 97.2865 351.659 97.9238 352.188C98.554 352.726 98.8691 353.474 98.8691 354.434C98.8691 355.479 98.4323 356.378 97.5586 357.13C96.6849 357.882 95.3923 358.258 93.6807 358.258C92.1266 358.258 90.8949 357.943 89.9854 357.312C89.083 356.682 88.4922 355.826 88.2129 354.745ZM108.129 354.369L111.137 354.874C110.75 355.977 110.138 356.818 109.3 357.398C108.469 357.971 107.427 358.258 106.174 358.258C104.19 358.258 102.722 357.61 101.77 356.313C101.018 355.275 100.642 353.965 100.642 352.382C100.642 350.491 101.136 349.012 102.124 347.945C103.112 346.871 104.362 346.334 105.873 346.334C107.57 346.334 108.91 346.896 109.891 348.021C110.872 349.138 111.341 350.853 111.298 353.166H103.735C103.757 354.061 104 354.759 104.466 355.261C104.931 355.755 105.511 356.002 106.206 356.002C106.679 356.002 107.076 355.873 107.398 355.615C107.721 355.357 107.964 354.942 108.129 354.369ZM108.301 351.318C108.279 350.445 108.054 349.782 107.624 349.331C107.194 348.873 106.672 348.644 106.056 348.644C105.397 348.644 104.853 348.883 104.423 349.363C103.993 349.843 103.782 350.495 103.789 351.318H108.301ZM122.019 358L118.409 346.592H121.342L123.479 354.068L125.445 346.592H128.356L130.258 354.068L132.438 346.592H135.414L131.751 358H128.851L126.885 350.663L124.951 358H122.019ZM139.271 350.072L136.531 349.578C136.839 348.475 137.369 347.659 138.121 347.129C138.873 346.599 139.99 346.334 141.473 346.334C142.819 346.334 143.822 346.495 144.48 346.817C145.139 347.132 145.601 347.537 145.866 348.031C146.138 348.518 146.274 349.417 146.274 350.728L146.242 354.251C146.242 355.254 146.289 355.995 146.382 356.475C146.482 356.947 146.665 357.456 146.93 358H143.943C143.865 357.799 143.768 357.502 143.653 357.108C143.603 356.929 143.567 356.811 143.546 356.754C143.03 357.255 142.479 357.631 141.892 357.882C141.304 358.132 140.678 358.258 140.012 358.258C138.837 358.258 137.91 357.939 137.229 357.302C136.556 356.664 136.22 355.859 136.22 354.885C136.22 354.24 136.374 353.667 136.682 353.166C136.99 352.658 137.419 352.271 137.971 352.006C138.529 351.734 139.331 351.497 140.377 351.297C141.788 351.032 142.765 350.785 143.31 350.556V350.255C143.31 349.675 143.166 349.263 142.88 349.02C142.593 348.769 142.053 348.644 141.258 348.644C140.721 348.644 140.302 348.751 140.001 348.966C139.7 349.174 139.457 349.542 139.271 350.072ZM143.31 352.521C142.923 352.65 142.311 352.804 141.473 352.983C140.635 353.162 140.087 353.338 139.829 353.51C139.435 353.789 139.238 354.144 139.238 354.573C139.238 354.996 139.396 355.361 139.711 355.669C140.026 355.977 140.427 356.131 140.914 356.131C141.458 356.131 141.978 355.952 142.472 355.594C142.837 355.322 143.077 354.989 143.191 354.595C143.27 354.337 143.31 353.846 143.31 353.123V352.521ZM149.261 345.045V342.252H152.279V345.045H149.261ZM149.261 358V346.592H152.279V358H149.261ZM160.615 346.592V348.998H158.553V353.596C158.553 354.527 158.571 355.071 158.606 355.229C158.649 355.379 158.739 355.504 158.875 355.604C159.018 355.705 159.19 355.755 159.391 355.755C159.67 355.755 160.075 355.658 160.604 355.465L160.862 357.807C160.16 358.107 159.366 358.258 158.478 358.258C157.933 358.258 157.443 358.168 157.006 357.989C156.569 357.803 156.247 357.567 156.039 357.28C155.839 356.987 155.699 356.593 155.62 356.099C155.556 355.748 155.523 355.039 155.523 353.972V348.998H154.138V346.592H155.523V344.325L158.553 342.563V346.592H160.615ZM170.96 358L167.351 346.592H170.283L172.421 354.068L174.387 346.592H177.298L179.199 354.068L181.38 346.592H184.355L180.692 358H177.792L175.826 350.663L173.893 358H170.96ZM188.964 342.252V348.042C189.938 346.903 191.102 346.334 192.455 346.334C193.15 346.334 193.776 346.463 194.335 346.721C194.894 346.979 195.312 347.308 195.592 347.709C195.878 348.11 196.072 348.554 196.172 349.041C196.279 349.528 196.333 350.284 196.333 351.308V358H193.314V351.974C193.314 350.778 193.257 350.019 193.143 349.696C193.028 349.374 192.824 349.12 192.53 348.934C192.244 348.74 191.882 348.644 191.445 348.644C190.944 348.644 190.496 348.765 190.103 349.009C189.709 349.252 189.419 349.621 189.232 350.115C189.053 350.602 188.964 351.326 188.964 352.285V358H185.945V342.252H188.964ZM199.405 345.045V342.252H202.424V345.045H199.405ZM199.405 358V346.592H202.424V358H199.405ZM205.528 358V342.252H208.547V358H205.528ZM218.258 354.369L221.266 354.874C220.879 355.977 220.267 356.818 219.429 357.398C218.598 357.971 217.556 358.258 216.303 358.258C214.319 358.258 212.851 357.61 211.898 356.313C211.146 355.275 210.771 353.965 210.771 352.382C210.771 350.491 211.265 349.012 212.253 347.945C213.241 346.871 214.491 346.334 216.002 346.334C217.699 346.334 219.038 346.896 220.02 348.021C221.001 349.138 221.47 350.853 221.427 353.166H213.864C213.886 354.061 214.129 354.759 214.595 355.261C215.06 355.755 215.64 356.002 216.335 356.002C216.808 356.002 217.205 355.873 217.527 355.615C217.85 355.357 218.093 354.942 218.258 354.369ZM218.43 351.318C218.408 350.445 218.183 349.782 217.753 349.331C217.323 348.873 216.8 348.644 216.185 348.644C215.526 348.644 214.981 348.883 214.552 349.363C214.122 349.843 213.911 350.495 213.918 351.318H218.43ZM228.592 346.592H231.804L234.532 354.691L237.196 346.592H240.322L236.294 357.57L235.574 359.558C235.309 360.224 235.055 360.732 234.812 361.083C234.575 361.434 234.299 361.717 233.984 361.932C233.676 362.154 233.293 362.326 232.835 362.447C232.384 362.569 231.872 362.63 231.299 362.63C230.719 362.63 230.149 362.569 229.591 362.447L229.322 360.084C229.795 360.177 230.221 360.224 230.601 360.224C231.302 360.224 231.822 360.016 232.158 359.601C232.495 359.192 232.753 358.67 232.932 358.032L228.592 346.592ZM241.568 352.135C241.568 351.132 241.815 350.162 242.31 349.224C242.804 348.285 243.502 347.569 244.404 347.075C245.314 346.581 246.327 346.334 247.444 346.334C249.17 346.334 250.585 346.896 251.688 348.021C252.79 349.138 253.342 350.552 253.342 352.264C253.342 353.99 252.783 355.422 251.666 356.561C250.556 357.692 249.156 358.258 247.466 358.258C246.42 358.258 245.421 358.021 244.469 357.549C243.523 357.076 242.804 356.385 242.31 355.476C241.815 354.559 241.568 353.445 241.568 352.135ZM244.662 352.296C244.662 353.427 244.931 354.294 245.468 354.896C246.005 355.497 246.667 355.798 247.455 355.798C248.243 355.798 248.902 355.497 249.432 354.896C249.969 354.294 250.237 353.42 250.237 352.274C250.237 351.157 249.969 350.298 249.432 349.696C248.902 349.095 248.243 348.794 247.455 348.794C246.667 348.794 246.005 349.095 245.468 349.696C244.931 350.298 244.662 351.164 244.662 352.296ZM263.225 358V356.292C262.809 356.901 262.261 357.381 261.581 357.731C260.908 358.082 260.195 358.258 259.443 358.258C258.677 358.258 257.99 358.09 257.381 357.753C256.772 357.416 256.332 356.944 256.06 356.335C255.787 355.726 255.651 354.885 255.651 353.811V346.592H258.67V351.834C258.67 353.438 258.724 354.423 258.831 354.788C258.946 355.146 259.15 355.433 259.443 355.647C259.737 355.855 260.109 355.959 260.561 355.959C261.076 355.959 261.538 355.819 261.946 355.54C262.354 355.254 262.634 354.903 262.784 354.487C262.935 354.065 263.01 353.037 263.01 351.404V346.592H266.028V358H263.225ZM272.055 358H269.036V346.592H271.84V348.214C272.32 347.448 272.749 346.943 273.129 346.699C273.516 346.456 273.952 346.334 274.439 346.334C275.127 346.334 275.789 346.524 276.427 346.903L275.492 349.535C274.984 349.206 274.511 349.041 274.074 349.041C273.652 349.041 273.294 349.159 273 349.396C272.706 349.625 272.474 350.044 272.302 350.652C272.137 351.261 272.055 352.536 272.055 354.477V358ZM293.808 349.965L290.832 350.502C290.732 349.908 290.503 349.46 290.145 349.159C289.794 348.858 289.335 348.708 288.77 348.708C288.018 348.708 287.416 348.969 286.965 349.492C286.521 350.008 286.299 350.874 286.299 352.092C286.299 353.445 286.524 354.401 286.976 354.96C287.434 355.519 288.046 355.798 288.812 355.798C289.385 355.798 289.854 355.637 290.22 355.314C290.585 354.985 290.843 354.423 290.993 353.628L293.958 354.133C293.65 355.493 293.059 356.521 292.186 357.216C291.312 357.91 290.141 358.258 288.673 358.258C287.004 358.258 285.672 357.731 284.677 356.679C283.688 355.626 283.194 354.169 283.194 352.307C283.194 350.423 283.692 348.959 284.688 347.913C285.683 346.86 287.029 346.334 288.727 346.334C290.116 346.334 291.219 346.635 292.035 347.236C292.859 347.831 293.45 348.74 293.808 349.965ZM295.408 352.135C295.408 351.132 295.655 350.162 296.149 349.224C296.644 348.285 297.342 347.569 298.244 347.075C299.154 346.581 300.167 346.334 301.284 346.334C303.01 346.334 304.424 346.896 305.527 348.021C306.63 349.138 307.182 350.552 307.182 352.264C307.182 353.99 306.623 355.422 305.506 356.561C304.396 357.692 302.996 358.258 301.306 358.258C300.26 358.258 299.261 358.021 298.309 357.549C297.363 357.076 296.644 356.385 296.149 355.476C295.655 354.559 295.408 353.445 295.408 352.135ZM298.502 352.296C298.502 353.427 298.771 354.294 299.308 354.896C299.845 355.497 300.507 355.798 301.295 355.798C302.083 355.798 302.742 355.497 303.271 354.896C303.809 354.294 304.077 353.42 304.077 352.274C304.077 351.157 303.809 350.298 303.271 349.696C302.742 349.095 302.083 348.794 301.295 348.794C300.507 348.794 299.845 349.095 299.308 349.696C298.771 350.298 298.502 351.164 298.502 352.296ZM309.33 346.592H312.112V348.149C313.108 346.939 314.293 346.334 315.668 346.334C316.398 346.334 317.032 346.484 317.569 346.785C318.106 347.086 318.547 347.541 318.891 348.149C319.392 347.541 319.933 347.086 320.513 346.785C321.093 346.484 321.712 346.334 322.371 346.334C323.209 346.334 323.918 346.506 324.498 346.85C325.078 347.186 325.511 347.684 325.798 348.343C326.006 348.83 326.109 349.618 326.109 350.706V358H323.091V351.479C323.091 350.348 322.987 349.618 322.779 349.288C322.5 348.858 322.07 348.644 321.49 348.644C321.068 348.644 320.67 348.772 320.298 349.03C319.925 349.288 319.657 349.668 319.492 350.169C319.327 350.663 319.245 351.447 319.245 352.521V358H316.227V351.748C316.227 350.638 316.173 349.922 316.065 349.6C315.958 349.277 315.79 349.037 315.561 348.88C315.339 348.722 315.034 348.644 314.647 348.644C314.182 348.644 313.763 348.769 313.391 349.02C313.018 349.27 312.75 349.632 312.585 350.104C312.427 350.577 312.349 351.361 312.349 352.457V358H309.33V346.592ZM329.042 346.592H331.856V348.268C332.222 347.695 332.716 347.229 333.339 346.871C333.962 346.513 334.653 346.334 335.412 346.334C336.737 346.334 337.861 346.853 338.785 347.892C339.709 348.93 340.171 350.377 340.171 352.231C340.171 354.136 339.705 355.619 338.774 356.679C337.843 357.731 336.715 358.258 335.391 358.258C334.76 358.258 334.188 358.132 333.672 357.882C333.163 357.631 332.626 357.201 332.061 356.593V362.34H329.042V346.592ZM332.028 352.103C332.028 353.384 332.283 354.333 332.791 354.949C333.299 355.558 333.919 355.862 334.649 355.862C335.351 355.862 335.935 355.583 336.4 355.024C336.866 354.459 337.099 353.535 337.099 352.253C337.099 351.057 336.859 350.169 336.379 349.589C335.899 349.009 335.305 348.719 334.596 348.719C333.858 348.719 333.246 349.005 332.759 349.578C332.272 350.144 332.028 350.985 332.028 352.103ZM350.086 358V356.292C349.671 356.901 349.123 357.381 348.442 357.731C347.769 358.082 347.057 358.258 346.305 358.258C345.538 358.258 344.851 358.09 344.242 357.753C343.633 357.416 343.193 356.944 342.921 356.335C342.649 355.726 342.513 354.885 342.513 353.811V346.592H345.531V351.834C345.531 353.438 345.585 354.423 345.692 354.788C345.807 355.146 346.011 355.433 346.305 355.647C346.598 355.855 346.971 355.959 347.422 355.959C347.938 355.959 348.399 355.819 348.808 355.54C349.216 355.254 349.495 354.903 349.646 354.487C349.796 354.065 349.871 353.037 349.871 351.404V346.592H352.89V358H350.086ZM361.258 346.592V348.998H359.195V353.596C359.195 354.527 359.213 355.071 359.249 355.229C359.292 355.379 359.382 355.504 359.518 355.604C359.661 355.705 359.833 355.755 360.033 355.755C360.312 355.755 360.717 355.658 361.247 355.465L361.505 357.807C360.803 358.107 360.008 358.258 359.12 358.258C358.576 358.258 358.085 358.168 357.648 357.989C357.212 357.803 356.889 357.567 356.682 357.28C356.481 356.987 356.341 356.593 356.263 356.099C356.198 355.748 356.166 355.039 356.166 353.972V348.998H354.78V346.592H356.166V344.325L359.195 342.563V346.592H361.258ZM369.959 354.369L372.967 354.874C372.58 355.977 371.968 356.818 371.13 357.398C370.299 357.971 369.257 358.258 368.004 358.258C366.02 358.258 364.552 357.61 363.6 356.313C362.848 355.275 362.472 353.965 362.472 352.382C362.472 350.491 362.966 349.012 363.954 347.945C364.942 346.871 366.192 346.334 367.703 346.334C369.4 346.334 370.74 346.896 371.721 348.021C372.702 349.138 373.171 350.853 373.128 353.166H365.565C365.587 354.061 365.83 354.759 366.296 355.261C366.761 355.755 367.341 356.002 368.036 356.002C368.509 356.002 368.906 355.873 369.229 355.615C369.551 355.357 369.794 354.942 369.959 354.369ZM370.131 351.318C370.109 350.445 369.884 349.782 369.454 349.331C369.024 348.873 368.502 348.644 367.886 348.644C367.227 348.644 366.683 348.883 366.253 349.363C365.823 349.843 365.612 350.495 365.619 351.318H370.131ZM378.488 358H375.47V346.592H378.273V348.214C378.753 347.448 379.183 346.943 379.562 346.699C379.949 346.456 380.386 346.334 380.873 346.334C381.561 346.334 382.223 346.524 382.86 346.903L381.926 349.535C381.417 349.206 380.945 349.041 380.508 349.041C380.085 349.041 379.727 349.159 379.434 349.396C379.14 349.625 378.907 350.044 378.735 350.652C378.571 351.261 378.488 352.536 378.488 354.477V358ZM148.799 382.745L151.828 382.283C151.957 382.87 152.218 383.318 152.612 383.626C153.006 383.927 153.558 384.077 154.267 384.077C155.047 384.077 155.634 383.934 156.028 383.647C156.293 383.447 156.426 383.178 156.426 382.842C156.426 382.613 156.354 382.423 156.211 382.272C156.061 382.129 155.724 381.997 155.201 381.875C152.766 381.338 151.223 380.847 150.571 380.403C149.669 379.787 149.218 378.932 149.218 377.836C149.218 376.848 149.608 376.017 150.389 375.344C151.169 374.671 152.38 374.334 154.02 374.334C155.581 374.334 156.741 374.588 157.5 375.097C158.259 375.605 158.782 376.357 159.068 377.353L156.222 377.879C156.1 377.435 155.867 377.095 155.523 376.858C155.187 376.622 154.703 376.504 154.073 376.504C153.278 376.504 152.709 376.615 152.365 376.837C152.136 376.994 152.021 377.199 152.021 377.449C152.021 377.664 152.122 377.847 152.322 377.997C152.594 378.198 153.533 378.48 155.137 378.846C156.748 379.211 157.872 379.659 158.51 380.188C159.14 380.726 159.455 381.474 159.455 382.434C159.455 383.479 159.018 384.378 158.145 385.13C157.271 385.882 155.978 386.258 154.267 386.258C152.713 386.258 151.481 385.943 150.571 385.312C149.669 384.682 149.078 383.826 148.799 382.745ZM165.116 370.252V376.042C166.09 374.903 167.254 374.334 168.607 374.334C169.302 374.334 169.929 374.463 170.487 374.721C171.046 374.979 171.465 375.308 171.744 375.709C172.031 376.11 172.224 376.554 172.324 377.041C172.432 377.528 172.485 378.284 172.485 379.308V386H169.467V379.974C169.467 378.778 169.41 378.019 169.295 377.696C169.18 377.374 168.976 377.12 168.683 376.934C168.396 376.74 168.035 376.644 167.598 376.644C167.096 376.644 166.649 376.765 166.255 377.009C165.861 377.252 165.571 377.621 165.385 378.115C165.206 378.602 165.116 379.326 165.116 380.285V386H162.098V370.252H165.116ZM183.066 386V384.292C182.651 384.901 182.103 385.381 181.423 385.731C180.75 386.082 180.037 386.258 179.285 386.258C178.519 386.258 177.831 386.09 177.223 385.753C176.614 385.416 176.174 384.944 175.901 384.335C175.629 383.726 175.493 382.885 175.493 381.811V374.592H178.512V379.834C178.512 381.438 178.565 382.423 178.673 382.788C178.787 383.146 178.992 383.433 179.285 383.647C179.579 383.855 179.951 383.959 180.402 383.959C180.918 383.959 181.38 383.819 181.788 383.54C182.196 383.254 182.476 382.903 182.626 382.487C182.776 382.065 182.852 381.037 182.852 379.404V374.592H185.87V386H183.066ZM194.238 374.592V376.998H192.176V381.596C192.176 382.527 192.194 383.071 192.229 383.229C192.272 383.379 192.362 383.504 192.498 383.604C192.641 383.705 192.813 383.755 193.014 383.755C193.293 383.755 193.698 383.658 194.228 383.465L194.485 385.807C193.784 386.107 192.989 386.258 192.101 386.258C191.556 386.258 191.066 386.168 190.629 385.989C190.192 385.803 189.87 385.567 189.662 385.28C189.462 384.987 189.322 384.593 189.243 384.099C189.179 383.748 189.146 383.039 189.146 381.972V376.998H187.761V374.592H189.146V372.325L192.176 370.563V374.592H194.238ZM195.27 382.745L198.299 382.283C198.428 382.87 198.689 383.318 199.083 383.626C199.477 383.927 200.028 384.077 200.737 384.077C201.518 384.077 202.105 383.934 202.499 383.647C202.764 383.447 202.896 383.178 202.896 382.842C202.896 382.613 202.825 382.423 202.682 382.272C202.531 382.129 202.195 381.997 201.672 381.875C199.237 381.338 197.694 380.847 197.042 380.403C196.14 379.787 195.688 378.932 195.688 377.836C195.688 376.848 196.079 376.017 196.859 375.344C197.64 374.671 198.85 374.334 200.49 374.334C202.051 374.334 203.212 374.588 203.971 375.097C204.73 375.605 205.253 376.357 205.539 377.353L202.692 377.879C202.571 377.435 202.338 377.095 201.994 376.858C201.658 376.622 201.174 376.504 200.544 376.504C199.749 376.504 199.18 376.615 198.836 376.837C198.607 376.994 198.492 377.199 198.492 377.449C198.492 377.664 198.592 377.847 198.793 377.997C199.065 378.198 200.003 378.48 201.607 378.846C203.219 379.211 204.343 379.659 204.98 380.188C205.611 380.726 205.926 381.474 205.926 382.434C205.926 383.479 205.489 384.378 204.615 385.13C203.742 385.882 202.449 386.258 200.737 386.258C199.183 386.258 197.951 385.943 197.042 385.312C196.14 384.682 195.549 383.826 195.27 382.745ZM225.165 386H222.361V384.324C221.896 384.976 221.344 385.463 220.707 385.785C220.077 386.1 219.439 386.258 218.795 386.258C217.484 386.258 216.36 385.731 215.422 384.679C214.491 383.619 214.025 382.144 214.025 380.253C214.025 378.319 214.48 376.851 215.39 375.849C216.299 374.839 217.449 374.334 218.838 374.334C220.113 374.334 221.215 374.864 222.146 375.924V370.252H225.165V386ZM217.108 380.049C217.108 381.266 217.277 382.147 217.613 382.691C218.1 383.479 218.781 383.873 219.654 383.873C220.349 383.873 220.94 383.579 221.427 382.992C221.914 382.398 222.157 381.513 222.157 380.339C222.157 379.028 221.921 378.087 221.448 377.514C220.976 376.934 220.37 376.644 219.633 376.644C218.917 376.644 218.315 376.93 217.828 377.503C217.348 378.069 217.108 378.917 217.108 380.049ZM227.453 380.135C227.453 379.132 227.7 378.162 228.194 377.224C228.688 376.285 229.387 375.569 230.289 375.075C231.199 374.581 232.212 374.334 233.329 374.334C235.055 374.334 236.469 374.896 237.572 376.021C238.675 377.138 239.227 378.552 239.227 380.264C239.227 381.99 238.668 383.422 237.551 384.561C236.441 385.692 235.041 386.258 233.351 386.258C232.305 386.258 231.306 386.021 230.354 385.549C229.408 385.076 228.688 384.385 228.194 383.476C227.7 382.559 227.453 381.445 227.453 380.135ZM230.547 380.296C230.547 381.427 230.815 382.294 231.353 382.896C231.89 383.497 232.552 383.798 233.34 383.798C234.128 383.798 234.786 383.497 235.316 382.896C235.854 382.294 236.122 381.42 236.122 380.274C236.122 379.157 235.854 378.298 235.316 377.696C234.786 377.095 234.128 376.794 233.34 376.794C232.552 376.794 231.89 377.095 231.353 377.696C230.815 378.298 230.547 379.164 230.547 380.296ZM243.728 386L240.118 374.592H243.051L245.188 382.068L247.154 374.592H250.065L251.967 382.068L254.147 374.592H257.123L253.46 386H250.56L248.594 378.663L246.66 386H243.728ZM269.101 386H266.082V380.178C266.082 378.946 266.018 378.151 265.889 377.793C265.76 377.428 265.549 377.145 265.255 376.944C264.968 376.744 264.621 376.644 264.213 376.644C263.69 376.644 263.221 376.787 262.806 377.073C262.39 377.36 262.104 377.739 261.946 378.212C261.796 378.685 261.721 379.558 261.721 380.833V386H258.702V374.592H261.506V376.268C262.501 374.979 263.755 374.334 265.266 374.334C265.932 374.334 266.54 374.456 267.092 374.699C267.643 374.936 268.059 375.24 268.338 375.612C268.624 375.985 268.821 376.407 268.929 376.88C269.043 377.353 269.101 378.029 269.101 378.91V386ZM272.173 386V382.981H275.191V386H272.173Z" fill="#F3792B"/>
<defs>
<filter id="filter0_d" x="0" y="0" width="430" height="310.522" filterUnits="userSpaceOnUse" color-interpolation-filters="sRGB">
<feFlood flood-opacity="0" result="BackgroundImageFix"/>
<feColorMatrix in="SourceAlpha" type="matrix" values="0 0 0 0 0 0 0 0 0 0 0 0 0 0 0 0 0 0 127 0"/>
<feOffset dx="2" dy="3"/>
<feGaussianBlur stdDeviation="0.5"/>
<feColorMatrix type="matrix" values="0 0 0 0 0 0 0 0 0 0 0 0 0 0 0 0 0 0 0.55 0"/>
<feBlend mode="normal" in2="BackgroundImageFix" result="effect1_dropShadow"/>
<feBlend mode="normal" in="SourceGraphic" in2="effect1_dropShadow" result="shape"/>
</filter>
</defs>
</svg>
