<?xml version="1.0" encoding="UTF-8"?>
<svg width="85%" height="90%" viewBox="0 0 45 14" version="1.1" xmlns="http://www.w3.org/2000/svg" xmlns:xlink="http://www.w3.org/1999/xlink">
    <!-- Generator: Sketch 55.2 (78181) - https://sketchapp.com -->
    <title>Group 3</title>
    <desc>Created with Sketch.</desc>
    <g id="win" stroke="none" stroke-width="1" fill="none" fill-rule="evenodd">
        <g id="start" transform="translate(-6.000000, -8.000000)">
            <g id="start-button">
                <g transform="translate(2.000000, 4.000000)">
                    <g id="Group-3" transform="translate(4.000000, 4.000000)">
                        <path d="M21,6 L24,6 L24,7 L25,7 L25,10 L24,10 L24,11 L21,11 L20,11 L20,10 L19,10 L19,9 L21,9 L21,10 L21,10 L23,10 L23,7 L21,7 L20,7 L20,6 L19,6 L19,3 L20,3 L20,2 L21,2 L24,2 L24,3 L25,3 L25,4 L23,4 L23,3 L21,3 L21,6 Z M43,10 L42,10 L42,3 L44,3 L44,5 L45,5 L45,6 L44,6 L44,10 L45,10 L45,11 L43,11 L43,10 Z M28,10 L27,10 L27,3 L29,3 L29,5 L30,5 L30,6 L29,6 L29,10 L30,10 L30,11 L28,11 L28,10 Z M35.5,11 L32,11 L32,10 L31,10 L31,8 L32,8 L32,7 L35,7 L35,6 L32,6 L32,5 L36,5 L36,6 L37,6 L37,11 L35.5,11 Z M35,10 L35,8 L33,8 L33,10 L35,10 Z M40,5 L41,5 L41,6 L40,6 L40,11 L38,11 L38,5 L40,5 Z" id="Combined-Shape" fill="#000000"></path>
                        <path d="M10,10 L10,7 L9,7 L9,8 L8,8 L8,11.5 L8,11 L9,11 L9,10 L10,10 Z M12,10 L13,10 L13,11 L14,11 L14,8 L13,8 L13,7 L12,7 L12,10 Z M12,2 L12,5 L13,5 L13,6 L14,6 L14,3 L13,3 L13,2 L12,2 Z M12,0 L13,0 L13,1 L14,1 L15,1 L15,2 L16,2 L16,12 L16,14 L15,14 L15,13 L14,13 L13,13 L13,12 L9,12 L9,13 L7,13 L7,14 L3,14 L2,14 L2,12 L3,12 L3,13 L4,13 L4,12 L6,12 L6,5 L3,5 L2,5 L2,3 L3,3 L3,4 L4,4 L4,3 L6,3 L6,2 L7,2 L7,1 L9,1 L9,0 L10,0 L12,0 Z M10,2 L9,2 L9,3 L8,3 L8,6 L9,6 L9,5 L10,5 L10,2 Z M0,2 L1,2 L1,4 L0,4 L0,2 Z M0,11 L1,11 L1,13 L0,13 L0,11 Z" id="Combined-Shape" fill="#000000"></path>
                        <path d="M3,7 L4,7 L4,6 L6,6 L6,8 L4,8 L3,8 L2,8 L2,6 L3,6 L3,7 Z M9,3 L9,2 L10,2 L10,5 L9,5 L9,6 L8,6 L8,3 L9,3 Z M0,5 L1,5 L1,7 L0,7 L0,5 Z" id="Combined-Shape" fill="#FF0000"></path>
                        <path d="M3,10 L4,10 L4,9 L6,9 L6,11 L4,11 L3,11 L2,11 L2,9 L3,9 L3,10 Z M9,8 L9,7 L10,7 L10,10 L9,10 L9,11 L8,11 L8,8 L9,8 Z M0,8 L1,8 L1,10 L0,10 L0,8 Z" id="Combined-Shape-Copy" fill="#0000FF"></path>
                        <path d="M13,3 L14,3 L14,6 L13,6 L13,5 L12,5 L12,2 L13,2 L13,3 Z" id="Combined-Shape" fill="#00FF00"></path>
                        <path d="M13,8 L14,8 L14,11 L13,11 L13,10 L12,10 L12,7 L13,7 L13,8 Z" id="Combined-Shape-Copy-2" fill="#FFFF00"></path>
                    </g>
                </g>
            </g>
        </g>
    </g>
</svg>