<svg width="20" height="19" viewBox="0 0 20 19" fill="none" xmlns="http://www.w3.org/2000/svg">
<rect x="12" y="14" width="1" height="9" transform="rotate(-180 12 14)" fill="#828282"/>
<rect x="11" y="13" width="1" height="7" transform="rotate(-180 11 13)" fill="#828282"/>
<rect x="10" y="12" width="1" height="5" transform="rotate(-180 10 12)" fill="#828282"/>
<rect x="9" y="11" width="1" height="3" transform="rotate(-180 9 11)" fill="#828282"/>
<rect x="8" y="10" width="1" height="1" transform="rotate(-180 8 10)" fill="#828282"/>
<rect width="1" height="2" transform="matrix(-1 0 0 1 11 13)" fill="white"/>
<rect width="1" height="2" transform="matrix(-1 0 0 1 10 12)" fill="white"/>
<rect width="1" height="2" transform="matrix(-1 0 0 1 9 11)" fill="white"/>
<rect width="1" height="2" transform="matrix(-1 0 0 1 8 10)" fill="white"/>
<rect width="1" height="1" transform="matrix(-1 0 0 1 7 10)" fill="white"/>
</svg>
