<svg width="21" height="20" viewBox="0 0 21 20" fill="none" xmlns="http://www.w3.org/2000/svg">
<rect x="7" y="6" width="11" height="8" fill="#2B0000"/>
<rect x="11" y="8" width="1" height="1" fill="white"/>
<rect x="16" y="9" width="1" height="1" fill="white"/>
<rect x="12" y="9" width="1" height="1" fill="white"/>
<rect x="12" y="7" width="1" height="1" fill="white"/>
<rect x="13" y="8" width="1" height="1" fill="white"/>
<rect x="8" y="9" width="1" height="1" fill="white"/>
<rect x="10" y="7" width="1" height="1" fill="white"/>
<rect x="14" y="7" width="1" height="1" fill="white"/>
<rect x="11" y="11" width="1" height="1" fill="#FFFF00"/>
<rect x="15" y="11" width="1" height="1" fill="#FFFF00"/>
<rect x="12" y="12" width="1" height="1" fill="#FFFF00"/>
<rect x="16" y="12" width="1" height="1" fill="#FFFF00"/>
<rect x="10" y="12" width="1" height="1" fill="#FFFF00"/>
<rect x="14" y="12" width="1" height="1" fill="#FFFF00"/>
<rect x="12" y="10" width="1" height="1" fill="#FFFF00"/>
<rect x="12" y="8" width="1" height="1" fill="#FFFF00"/>
<rect x="13" y="7" width="1" height="1" fill="#FFFF00"/>
<rect x="13" y="9" width="1" height="1" fill="#FFFF00"/>
<rect x="14" y="10" width="1" height="1" fill="#FFFF00"/>
<rect x="10" y="10" width="1" height="1" fill="#FFFF00"/>
<rect x="8" y="10" width="1" height="1" fill="#FFFF00"/>
<rect x="10" y="8" width="1" height="1" fill="#FFFF00"/>
<rect x="9" y="7" width="1" height="1" fill="#FFFF00"/>
<rect x="8" y="8" width="1" height="1" fill="#FFFF00"/>
<rect x="14" y="8" width="1" height="1" fill="#FFFF00"/>
<rect x="15" y="9" width="1" height="1" fill="#FFFF00"/>
<rect x="16" y="10" width="1" height="1" fill="#FFFF00"/>
<rect x="16" y="8" width="1" height="1" fill="#FFFF00"/>
<rect x="15" y="7" width="1" height="1" fill="#FFFF00"/>
<rect x="9" y="11" width="1" height="1" fill="#FFFF00"/>
<rect x="13" y="11" width="1" height="1" fill="#FFFF00"/>
<rect x="8" y="12" width="1" height="1" fill="#FFFF00"/>
<rect x="12" y="12" width="1" height="1" fill="#FFFF00"/>
<rect x="11" y="9" width="1" height="1" fill="#FFFF00"/>
<rect x="11" y="7" width="1" height="1" fill="#FFFF00"/>
<rect x="9" y="9" width="1" height="1" fill="#FFFF00"/>
<rect x="13" y="12" width="1" height="1" fill="white"/>
<rect x="10" y="11" width="1" height="1" fill="white"/>
<rect x="14" y="11" width="1" height="1" fill="white"/>
<rect x="11" y="12" width="1" height="1" fill="white"/>
<rect x="15" y="12" width="1" height="1" fill="white"/>
<rect x="9" y="12" width="1" height="1" fill="white"/>
<rect x="6" y="6" width="1" height="1" fill="#2B0000"/>
<rect width="1" height="1" transform="matrix(-1 0 0 1 5 6)" fill="#2B0000"/>
<rect width="1" height="1" transform="matrix(-1 0 0 1 3 6)" fill="#2B0000"/>
<rect x="6" y="8" width="1" height="1" fill="#2B0000"/>
<rect width="1" height="1" transform="matrix(-1 0 0 1 5 8)" fill="#2B0000"/>
<rect width="1" height="1" transform="matrix(-1 0 0 1 3 8)" fill="#2B0000"/>
<rect x="6" y="10" width="1" height="1" fill="#2B0000"/>
<rect width="1" height="1" transform="matrix(-1 0 0 1 5 10)" fill="#2B0000"/>
<rect width="1" height="1" transform="matrix(-1 0 0 1 3 10)" fill="#2B0000"/>
<rect x="6" y="12" width="1" height="1" fill="#2B0000"/>
<rect width="1" height="1" transform="matrix(-1 0 0 1 5 12)" fill="#2B0000"/>
<rect width="1" height="1" transform="matrix(-1 0 0 1 3 12)" fill="#2B0000"/>
</svg>
