<svg width="19" height="19" viewBox="0 0 19 19" fill="none" xmlns="http://www.w3.org/2000/svg">
<rect x="3" y="2" width="10" height="16" fill="black"/>
<rect x="13" y="5" width="3" height="13" fill="black"/>
<rect x="13" y="3" width="1" height="2" fill="black"/>
<rect x="14" y="4" width="1" height="1" fill="black"/>
<rect x="4" y="3" width="8" height="14" fill="white"/>
<rect x="12" y="6" width="3" height="11" fill="white"/>
<rect x="13" y="4" width="1" height="1" fill="white"/>
<rect x="9" y="5" width="1" height="5" fill="#008200"/>
<rect x="9" y="11" width="1" height="5" fill="#008200"/>
<rect x="12" y="10" width="1" height="3" fill="#008200"/>
<rect x="6" y="8" width="1" height="3" fill="#008200"/>
<rect x="7" y="7" width="2" height="1" fill="#008200"/>
<rect x="10" y="13" width="2" height="1" fill="#008200"/>
<rect x="8" y="12" width="1" height="3" fill="#008200"/>
<rect x="10" y="6" width="1" height="3" fill="#008200"/>
<rect x="7" y="13" width="1" height="1" fill="#008200"/>
<rect x="11" y="7" width="1" height="1" fill="#008200"/>
</svg>
