<svg width="19" height="19" viewBox="0 0 19 19" fill="none" xmlns="http://www.w3.org/2000/svg">
<g clip-path="url(#clip0)">
<rect x="7" y="4" width="6" height="3" fill="#008200"/>
<rect x="12" y="5" width="2" height="3" fill="#008200"/>
<rect x="5" y="5" width="3" height="1" fill="#008200"/>
<rect x="4" y="6" width="2" height="1" fill="#008200"/>
<rect x="5" y="8" width="2" height="1" fill="#008200"/>
<rect x="4" y="12" width="1" height="2" fill="#008200"/>
<rect x="12" y="6" width="1" height="1" fill="#008200"/>
<rect x="10" y="6" width="1" height="1" fill="#008200"/>
<rect x="6" y="13" width="1" height="1" fill="#008200"/>
<rect x="7" y="14" width="1" height="1" fill="#008200"/>
<rect x="8" y="3" width="3" height="1" fill="#0000FF"/>
<rect x="5" y="7" width="3" height="1" fill="#0000FF"/>
<rect x="6" y="6" width="3" height="1" fill="#0000FF"/>
<rect x="4" y="9" width="2" height="6" fill="#0000FF"/>
<rect x="3" y="8" width="2" height="1" fill="#0000FF"/>
<rect x="3" y="12" width="1" height="2" fill="#008200"/>
<rect x="6" y="3" width="1" height="1" fill="#0000FF"/>
<rect x="5" y="4" width="1" height="1" fill="#0000FF"/>
<rect x="4" y="5" width="1" height="1" fill="#0000FF"/>
<rect x="3" y="6" width="1" height="1" fill="#0000FF"/>
<rect x="2" y="7" width="1" height="1" fill="#0000FF"/>
<rect x="2" y="9" width="1" height="1" fill="#0000FF"/>
<rect x="4" y="7" width="1" height="1" fill="#0000FF"/>
<rect x="2" y="10" width="1" height="2" fill="#008200"/>
<rect x="3" y="10" width="1" height="2" fill="#0000FF"/>
<rect x="6" y="14" width="1" height="1" fill="#0000FF"/>
<rect x="10" y="6" width="1" height="1" fill="#0000FF"/>
<rect x="13" y="8" width="1" height="1" fill="#0000FF"/>
<rect x="12" y="4" width="1" height="1" fill="#0000FF"/>
<rect x="6" y="2" width="5" height="1" fill="#000082"/>
<rect x="4" y="3" width="2" height="1" fill="#000082"/>
<rect x="11" y="3" width="2" height="1" fill="#000082"/>
<rect x="14" y="5" width="1" height="2" fill="black"/>
<rect x="15" y="7" width="1" height="5" fill="black"/>
<rect x="6" y="16" width="5" height="1" fill="black"/>
<rect x="11" y="15" width="2" height="1" fill="black"/>
<rect x="6" y="9" width="1" height="4" fill="black"/>
<rect x="14" y="12" width="1" height="2" fill="black"/>
<rect x="13" y="9" width="1" height="4" fill="black"/>
<rect x="8" y="7" width="4" height="1" fill="black"/>
<rect x="8" y="14" width="4" height="1" fill="black"/>
<rect x="7" y="8" width="1" height="1" fill="black"/>
<rect x="7" y="13" width="1" height="1" fill="black"/>
<rect x="12" y="8" width="1" height="1" fill="black"/>
<rect x="12" y="13" width="1" height="1" fill="black"/>
<rect x="15" y="17" width="1" height="1" fill="black"/>
<rect x="15" y="14" width="1" height="1" fill="black"/>
<rect x="12" y="14" width="1" height="1" fill="#FF0000"/>
<rect x="13" y="13" width="1" height="1" fill="#820000"/>
<rect x="14" y="14" width="1" height="1" fill="#820000"/>
<rect x="15" y="15" width="1" height="1" fill="#820000"/>
<rect x="15" y="16" width="1" height="1" fill="#820000"/>
<rect x="13" y="15" width="1" height="1" fill="#FF0000"/>
<rect x="14" y="16" width="1" height="1" fill="#FF0000"/>
<rect x="7" y="10" width="1" height="1" fill="#00FFFF"/>
<rect x="8" y="11" width="1" height="1" fill="#00FFFF"/>
<rect x="9" y="12" width="1" height="1" fill="#00FFFF"/>
<rect x="9" y="10" width="1" height="1" fill="#00FFFF"/>
<rect x="9" y="8" width="1" height="1" fill="#00FFFF"/>
<rect x="9" y="9" width="1" height="1" fill="white"/>
<rect x="12" y="11" width="1" height="1" fill="white"/>
<rect x="14" y="15" width="1" height="1" fill="white"/>
<rect x="13" y="14" width="1" height="1" fill="white"/>
<rect x="11" y="11" width="1" height="1" fill="white"/>
<rect x="10" y="13" width="1" height="1" fill="white"/>
<rect x="10" y="9" width="1" height="1" fill="#00FFFF"/>
<rect x="10" y="11" width="1" height="1" fill="#00FFFF"/>
<rect x="11" y="10" width="1" height="1" fill="#00FFFF"/>
<rect x="7" y="9" width="1" height="1" fill="#828282"/>
<rect x="7" y="12" width="1" height="1" fill="#828282"/>
<rect x="8" y="13" width="1" height="1" fill="#828282"/>
<rect x="11" y="13" width="1" height="1" fill="#828282"/>
<rect x="12" y="12" width="1" height="1" fill="#828282"/>
<rect x="12" y="9" width="1" height="1" fill="#828282"/>
<rect x="11" y="8" width="1" height="1" fill="#828282"/>
<rect x="8" y="8" width="1" height="1" fill="#828282"/>
<rect x="7" y="11" width="1" height="1" fill="#C3C3C3"/>
<rect x="8" y="12" width="1" height="1" fill="#C3C3C3"/>
<rect x="9" y="11" width="1" height="1" fill="#C3C3C3"/>
<rect x="10" y="10" width="1" height="1" fill="#C3C3C3"/>
<rect x="10" y="8" width="1" height="1" fill="#C3C3C3"/>
<rect x="12" y="10" width="1" height="1" fill="#C3C3C3"/>
<rect x="11" y="11" width="1" height="1" fill="#C3C3C3"/>
<rect x="11" y="9" width="1" height="1" fill="#C3C3C3"/>
<rect x="10" y="12" width="1" height="1" fill="#C3C3C3"/>
<rect x="9" y="13" width="1" height="1" fill="#C3C3C3"/>
<rect x="8" y="9" width="1" height="2" fill="white"/>
<rect x="4" y="15" width="7" height="1" fill="#000082"/>
<rect x="2" y="12" width="1" height="2" fill="#000082"/>
<rect x="1" y="7" width="1" height="5" fill="#000082"/>
<rect x="14" y="7" width="1" height="5" fill="#000082"/>
<rect x="2" y="5" width="1" height="2" fill="#000082"/>
<rect x="3" y="4" width="1" height="1" fill="#000082"/>
<rect x="13" y="4" width="1" height="1" fill="#000082"/>
<rect x="3" y="14" width="1" height="1" fill="#000082"/>
<rect x="16" y="15" width="1" height="3" fill="black"/>
</g>
<defs>
<clipPath id="clip0">
<rect width="19" height="19" fill="white"/>
</clipPath>
</defs>
</svg>
