<svg width="20" height="19" viewBox="0 0 20 19" fill="none" xmlns="http://www.w3.org/2000/svg">
<rect x="16" y="6" width="1" height="10" fill="black"/>
<rect x="2" y="5" width="14" height="1" fill="black"/>
<rect x="2" y="6" width="1" height="10" fill="black"/>
<rect x="3" y="15" width="13" height="1" fill="black"/>
<rect x="4" y="3" width="5" height="1" fill="black"/>
<rect x="9" y="4" width="1" height="1" fill="black"/>
<rect x="3" y="4" width="1" height="1" fill="black"/>
<rect x="15" y="14" width="1" height="1" fill="white"/>
<rect x="3" y="6" width="13" height="9" fill="white"/>
<rect x="9" y="7" width="1" height="3" fill="#0000FF"/>
<rect x="9" y="11" width="1" height="3" fill="#0000FF"/>
<rect x="10" y="10" width="3" height="1" fill="#0000FF"/>
<rect x="6" y="10" width="3" height="1" fill="#0000FF"/>
<rect x="4" y="8" width="1" height="1" fill="#FFFF00"/>
<rect x="4" y="12" width="1" height="1" fill="#FFFF00"/>
<rect x="4" y="14" width="1" height="1" fill="#FFFF00"/>
<rect x="7" y="9" width="1" height="1" fill="#FFFF00"/>
<rect x="10" y="6" width="1" height="1" fill="#FFFF00"/>
<rect x="11" y="7" width="1" height="1" fill="#FFFF00"/>
<rect x="7" y="13" width="1" height="1" fill="#FFFF00"/>
<rect x="11" y="13" width="1" height="1" fill="#FFFF00"/>
<rect x="3" y="9" width="1" height="1" fill="#FFFF00"/>
<rect x="6" y="6" width="1" height="1" fill="#FFFF00"/>
<rect x="3" y="13" width="1" height="1" fill="#FFFF00"/>
<rect x="12" y="12" width="1" height="1" fill="#FFFF00"/>
<rect x="13" y="11" width="1" height="1" fill="#FFFF00"/>
<rect x="15" y="11" width="1" height="1" fill="#FFFF00"/>
<rect x="14" y="12" width="1" height="1" fill="#FFFF00"/>
<rect x="6" y="14" width="1" height="1" fill="#FFFF00"/>
<rect x="10" y="14" width="1" height="1" fill="#FFFF00"/>
<rect x="5" y="7" width="1" height="1" fill="#FFFF00"/>
<rect x="5" y="11" width="1" height="1" fill="#FFFF00"/>
<rect x="8" y="8" width="1" height="1" fill="#FFFF00"/>
<rect x="12" y="8" width="1" height="1" fill="#FFFF00"/>
<rect x="13" y="7" width="1" height="1" fill="#FFFF00"/>
<rect x="15" y="7" width="1" height="1" fill="#FFFF00"/>
<rect x="14" y="8" width="1" height="1" fill="#FFFF00"/>
<rect x="11" y="9" width="1" height="1" fill="#FFFF00"/>
<rect x="14" y="6" width="1" height="1" fill="#FFFF00"/>
<rect x="8" y="12" width="1" height="1" fill="#FFFF00"/>
<rect x="8" y="14" width="1" height="1" fill="#FFFF00"/>
<rect x="12" y="12" width="1" height="1" fill="#FFFF00"/>
<rect x="3" y="7" width="1" height="1" fill="#FFFF00"/>
<rect x="3" y="11" width="1" height="1" fill="#FFFF00"/>
<rect x="6" y="8" width="1" height="1" fill="#FFFF00"/>
<rect x="13" y="9" width="1" height="1" fill="#FFFF00"/>
<rect x="15" y="9" width="1" height="1" fill="#FFFF00"/>
<rect x="14" y="10" width="1" height="1" fill="#FFFF00"/>
<rect x="12" y="6" width="1" height="1" fill="#FFFF00"/>
<rect x="6" y="12" width="1" height="1" fill="#FFFF00"/>
<rect x="10" y="12" width="1" height="1" fill="#FFFF00"/>
<rect x="5" y="9" width="1" height="1" fill="#FFFF00"/>
<rect x="8" y="6" width="1" height="1" fill="#FFFF00"/>
<rect x="5" y="13" width="1" height="1" fill="#FFFF00"/>
<rect x="12" y="14" width="1" height="1" fill="#FFFF00"/>
<rect x="13" y="13" width="1" height="1" fill="#FFFF00"/>
<rect x="15" y="13" width="1" height="1" fill="#FFFF00"/>
<rect x="14" y="14" width="1" height="1" fill="#FFFF00"/>
<rect x="4" y="6" width="1" height="1" fill="#FFFF00"/>
<rect x="4" y="10" width="1" height="1" fill="#FFFF00"/>
<rect x="7" y="7" width="1" height="1" fill="#FFFF00"/>
<rect x="10" y="8" width="1" height="1" fill="#FFFF00"/>
<rect x="7" y="11" width="1" height="1" fill="#FFFF00"/>
<rect x="11" y="11" width="1" height="1" fill="#FFFF00"/>
<rect x="4" y="4" width="5" height="1" fill="#FFFF00"/>
<rect x="5" y="4" width="1" height="1" fill="white"/>
<rect x="7" y="4" width="1" height="1" fill="white"/>
<rect x="10" y="9" width="1" height="1" fill="#0000FF"/>
<rect x="10" y="11" width="1" height="1" fill="#0000FF"/>
<rect x="7" y="12" width="1" height="1" fill="#0000FF"/>
<rect x="8" y="11" width="1" height="1" fill="#0000FF"/>
<rect x="7" y="8" width="1" height="1" fill="#0000FF"/>
<rect x="8" y="9" width="1" height="1" fill="#0000FF"/>
<rect x="11" y="12" width="1" height="1" fill="#0000FF"/>
<rect x="11" y="8" width="1" height="1" fill="#0000FF"/>
</svg>
