<svg width="20" height="19" viewBox="0 0 20 19" fill="none" xmlns="http://www.w3.org/2000/svg">
<rect x="18" y="5" width="1" height="1" fill="#C4C4C4"/>
<rect x="3" y="4" width="12" height="10" fill="#828282"/>
<rect x="3" y="4" width="1" height="1" fill="#828200"/>
<rect x="5" y="4" width="1" height="1" fill="#828200"/>
<rect x="5" y="4" width="1" height="1" fill="#828200"/>
<rect x="3" y="8" width="1" height="1" fill="#828200"/>
<rect x="4" y="7" width="1" height="1" fill="#828200"/>
<rect x="6" y="7" width="1" height="1" fill="#828200"/>
<rect x="5" y="5" width="1" height="1" fill="black"/>
<rect x="6" y="4" width="1" height="1" fill="black"/>
<rect x="11" y="4" width="1" height="1" fill="black"/>
<rect x="12" y="5" width="1" height="1" fill="black"/>
<rect x="8" y="7" width="1" height="1" fill="#828200"/>
<rect x="10" y="7" width="1" height="1" fill="#828200"/>
<rect x="12" y="7" width="1" height="1" fill="#828200"/>
<rect x="14" y="7" width="1" height="1" fill="#828200"/>
<rect x="14" y="5" width="1" height="1" fill="#828200"/>
<rect x="13" y="4" width="1" height="1" fill="#828200"/>
<rect x="5" y="8" width="1" height="1" fill="#828200"/>
<rect x="7" y="8" width="1" height="1" fill="#828200"/>
<rect x="4" y="11" width="1" height="1" fill="#828200"/>
<rect x="6" y="11" width="1" height="1" fill="#828200"/>
<rect x="5" y="12" width="1" height="1" fill="#828200"/>
<rect x="7" y="12" width="1" height="1" fill="#828200"/>
<rect x="3" y="6" width="1" height="1" fill="#828200"/>
<rect x="3" y="10" width="1" height="1" fill="#828200"/>
<rect x="3" y="12" width="1" height="1" fill="#828200"/>
<rect x="4" y="9" width="1" height="1" fill="#828200"/>
<rect x="6" y="9" width="1" height="1" fill="#828200"/>
<rect x="5" y="10" width="1" height="1" fill="#828200"/>
<rect x="7" y="10" width="1" height="1" fill="#828200"/>
<rect x="4" y="13" width="1" height="1" fill="#828200"/>
<rect x="6" y="13" width="1" height="1" fill="#828200"/>
<rect x="5" y="6" width="8" height="1" fill="black"/>
<rect x="7" y="2" width="4" height="3" fill="black"/>
<rect x="2" y="4" width="1" height="10" fill="black"/>
<rect x="15" y="4" width="1" height="5" fill="black"/>
<rect x="3" y="3" width="12" height="1" fill="black"/>
<rect x="8" y="3" width="2" height="1" fill="#FFFF00"/>
<rect x="7" y="4" width="1" height="1" fill="#FFFF00"/>
<rect x="10" y="4" width="1" height="1" fill="#FFFF00"/>
<rect x="8" y="8" width="7" height="8" fill="#000082"/>
<rect x="15" y="11" width="3" height="5" fill="#000082"/>
<rect x="15" y="9" width="1" height="1" fill="#000082"/>
<rect x="16" y="10" width="1" height="1" fill="#000082"/>
<rect x="9" y="9" width="5" height="6" fill="white"/>
<rect x="14" y="12" width="3" height="3" fill="white"/>
<rect x="15" y="10" width="1" height="1" fill="white"/>
<rect x="10" y="11" width="3" height="1" fill="black"/>
<rect x="10" y="13" width="6" height="1" fill="black"/>
<rect x="3" y="14" width="5" height="1" fill="black"/>
<rect x="6" y="5" width="6" height="1" fill="#C3C3C3"/>
</svg>
