<svg width="19" height="19" viewBox="0 0 19 19" fill="none" xmlns="http://www.w3.org/2000/svg">
<rect x="3" y="2" width="1" height="12" fill="black"/>
<rect x="4" y="2" width="9" height="1" fill="black"/>
<rect x="12" y="3" width="1" height="3" fill="black"/>
<rect x="13" y="5" width="3" height="1" fill="black"/>
<rect x="15" y="6" width="1" height="8" fill="black"/>
<rect x="13" y="3" width="1" height="1" fill="black"/>
<rect x="14" y="4" width="1" height="1" fill="black"/>
<rect x="13" y="4" width="1" height="1" fill="white"/>
<rect x="15" y="15" width="1" height="1" fill="black"/>
<rect x="15" y="17" width="1" height="1" fill="black"/>
<rect x="13" y="17" width="1" height="1" fill="black"/>
<rect x="11" y="17" width="1" height="1" fill="black"/>
<rect x="9" y="17" width="1" height="1" fill="black"/>
<rect x="7" y="17" width="1" height="1" fill="black"/>
<rect x="5" y="17" width="1" height="1" fill="black"/>
<rect x="3" y="17" width="1" height="1" fill="black"/>
<rect x="3" y="15" width="1" height="1" fill="black"/>
<rect x="4" y="3" width="8" height="11" fill="white"/>
<rect x="12" y="6" width="3" height="8" fill="white"/>
<rect x="13" y="4" width="1" height="1" fill="white"/>
<rect x="14" y="14" width="1" height="1" fill="white"/>
<rect x="12" y="14" width="1" height="1" fill="white"/>
<rect x="10" y="14" width="1" height="1" fill="white"/>
<rect x="8" y="14" width="1" height="1" fill="white"/>
<rect x="6" y="14" width="1" height="1" fill="white"/>
<rect x="4" y="14" width="1" height="1" fill="white"/>
<rect x="13" y="15" width="1" height="1" fill="white"/>
<rect x="11" y="15" width="1" height="1" fill="white"/>
<rect x="9" y="15" width="1" height="1" fill="white"/>
<rect x="7" y="15" width="1" height="1" fill="white"/>
<rect x="5" y="15" width="1" height="1" fill="white"/>
<rect x="14" y="16" width="1" height="1" fill="white"/>
<rect x="12" y="16" width="1" height="1" fill="white"/>
<rect x="10" y="16" width="1" height="1" fill="white"/>
<rect x="8" y="16" width="1" height="1" fill="white"/>
<rect x="6" y="16" width="1" height="1" fill="white"/>
<rect x="4" y="16" width="1" height="1" fill="white"/>
<rect x="8" y="9" width="3" height="3" fill="#820000"/>
<rect x="6" y="12" width="3" height="1" fill="#820000"/>
<rect x="6" y="8" width="3" height="1" fill="#820000"/>
<rect x="10" y="8" width="3" height="1" fill="#820000"/>
<rect x="10" y="12" width="3" height="1" fill="#820000"/>
<rect x="11" y="11" width="1" height="1" fill="#820000"/>
<rect x="11" y="9" width="1" height="1" fill="#820000"/>
<rect x="7" y="9" width="1" height="1" fill="#820000"/>
<rect x="7" y="11" width="1" height="1" fill="#820000"/>
</svg>
