<svg width="47" height="298" viewBox="0 0 47 298" fill="none" xmlns="http://www.w3.org/2000/svg">
<g clip-path="url(#clip0)">
<rect width="298" height="47" transform="translate(0 298) rotate(-90)" fill="#808080"/>
<path d="M21.1875 287.312V273.062H39V276.625H35.4375V280.188H24.75V287.312H21.1875ZM6.9375 280.188L6.9375 287.312H10.5V290.875H31.875V287.312H35.4375V280.188H39V290.875H35.4375V294.438H31.875V298H10.5V294.438H6.9375V290.875H3.375L3.375 276.625H6.9375V273.062H14.0625V276.625H10.5V280.188H6.9375ZM21.1875 255.25V258.812H35.4375V255.25H39V269.5H35.4375V265.938H17.625L17.625 269.5H14.0625L14.0625 262.375H17.625V258.812H14.0625V248.125H17.625V244.562H24.75V251.688H17.625V255.25H21.1875ZM21.1875 233.875V223.188H17.625V233.875H21.1875ZM14.0625 237.438V219.625H17.625V216.062H24.75V233.875H35.4375V223.188H31.875V216.062H35.4375V219.625H39V237.438H35.4375L35.4375 241H17.625V237.438H14.0625Z" fill="#B8B8B8"/>
<path d="M14.0234 199L14 198.977V196H11V190H14V193H38V196H41V208H38V211H35V205H38V199H32V208H29V211H14V208H11V199H14V205H29V199H14.0234Z" fill="#B8B8B8"/>
<path d="M38.4375 172.312V165.188H34.875V161.625H31.3125V158.062H42V183H38.4375V179.438H9.9375V183H6.375L6.375 172.312V168.75H9.9375V172.312H38.4375ZM24.1875 149.812V139.125H20.625V149.812H24.1875ZM17.0625 153.375V135.562H20.625V132H27.75V149.812H38.4375V139.125H34.875V132H38.4375V135.562H42V153.375H38.4375V156.938H20.625L20.625 153.375H17.0625ZM20.625 113.062V123.75H38.4375V113.062H20.625ZM38.4375 127.312V130.875H20.625V127.312H17.0625V109.5H20.625V105.938H38.4375V109.5H42L42 127.312H38.4375ZM20.625 101.25V104.812H17.0625V97.6875H20.625L20.625 94.125H42V101.25H20.625ZM17.0625 94.125V83.4375H20.625V79.875H42V87H20.625V94.125H17.0625ZM42 64.5V75.1875H38.4375V78.75H27.75V75.1875H24.1875V64.5H20.625V75.1875H17.0625V60.9375H20.625V57.375H38.4375V53.8125H42V60.9375H38.4375V64.4722L38.4097 64.5H27.75V71.625H38.4375V64.5H42ZM24.1875 38.4375V42H38.4375V38.4375H42V52.6875H38.4375V49.125H20.625V52.6875H17.0625V45.5625H20.625V42H17.0625L17.0625 31.3125H20.625V27.75H27.75V34.875H20.625L20.625 38.4375H24.1875ZM20.625 12.375V15.9375H24.1875V19.5H38.4375V12.4028L38.4653 12.375H42V23.0625H38.4375V26.625H24.1875V23.0625H20.625V19.5H17.0625V12.375H9.9375V15.9375H6.375V5.25H38.4375V1.6875H42V8.8125H38.4375L38.4375 12.375H20.625Z" fill="white"/>
<path d="M38.4375 172.312V172.812H38.9375V172.312H38.4375ZM38.4375 165.188H38.9375V164.688H38.4375V165.188ZM34.875 165.188H34.375V165.688H34.875V165.188ZM34.875 161.625H35.375V161.125H34.875V161.625ZM31.3125 161.625H30.8125V162.125H31.3125V161.625ZM31.3125 158.062V157.562H30.8125V158.062H31.3125ZM42 158.062H42.5V157.562H42V158.062ZM42 183V183.5H42.5V183H42ZM38.4375 183H37.9375V183.5H38.4375V183ZM38.4375 179.438H38.9375V178.938H38.4375V179.438ZM9.9375 179.438V178.938H9.4375V179.438H9.9375ZM9.9375 183V183.5H10.4375V183H9.9375ZM6.375 183H5.875V183.5H6.375V183ZM6.375 168.75V168.25H5.875V168.75H6.375ZM9.9375 168.75H10.4375L10.4375 168.25H9.9375L9.9375 168.75ZM9.9375 172.312H9.4375V172.812H9.9375V172.312ZM38.9375 172.312V165.188H37.9375V172.312H38.9375ZM38.4375 164.688H34.875V165.688H38.4375V164.688ZM35.375 165.188V161.625H34.375V165.188H35.375ZM34.875 161.125H31.3125V162.125H34.875V161.125ZM31.8125 161.625V158.062H30.8125V161.625H31.8125ZM31.3125 158.562H42V157.562H31.3125V158.562ZM41.5 158.062V183H42.5V158.062H41.5ZM42 182.5H38.4375V183.5H42V182.5ZM38.9375 183V179.438H37.9375V183H38.9375ZM38.4375 178.938H9.9375V179.938H38.4375V178.938ZM9.4375 179.438V183H10.4375V179.438H9.4375ZM9.9375 182.5H6.375V183.5H9.9375V182.5ZM6.875 183L6.875 172.312H5.875L5.875 183H6.875ZM6.875 172.312V168.75H5.875V172.312H6.875ZM6.375 169.25H9.9375L9.9375 168.25H6.375V169.25ZM9.4375 168.75V172.312H10.4375V168.75H9.4375ZM9.9375 172.812H38.4375V171.812H9.9375V172.812ZM24.1875 149.812V150.312H24.6875V149.812H24.1875ZM24.1875 139.125H24.6875V138.625H24.1875V139.125ZM20.625 139.125V138.625H20.125V139.125H20.625ZM20.625 149.812H20.125V150.312H20.625V149.812ZM17.0625 153.375H16.5625V153.875H17.0625V153.375ZM17.0625 135.562V135.062H16.5625V135.562H17.0625ZM20.625 135.562V136.062H21.125V135.562H20.625ZM20.625 132V131.5H20.125V132H20.625ZM27.75 132H28.25V131.5H27.75V132ZM27.75 149.812H27.25V150.312H27.75V149.812ZM38.4375 149.812V150.312H38.9375V149.812H38.4375ZM38.4375 139.125H38.9375V138.625H38.4375V139.125ZM34.875 139.125H34.375V139.625H34.875V139.125ZM34.875 132V131.5H34.375V132H34.875ZM38.4375 132H38.9375V131.5H38.4375V132ZM38.4375 135.562H37.9375V136.062H38.4375V135.562ZM42 135.562H42.5V135.062H42V135.562ZM42 153.375V153.875H42.5V153.375H42ZM38.4375 153.375V152.875H37.9375V153.375H38.4375ZM38.4375 156.938V157.438H38.9375V156.938H38.4375ZM20.625 156.938H20.125V157.438H20.625V156.938ZM20.625 153.375H21.125V152.875H20.625V153.375ZM24.6875 149.812V139.125H23.6875V149.812H24.6875ZM24.1875 138.625H20.625V139.625H24.1875V138.625ZM20.125 139.125V149.812H21.125V139.125H20.125ZM20.625 150.312H24.1875V149.312H20.625V150.312ZM17.5625 153.375V135.562H16.5625V153.375H17.5625ZM17.0625 136.062H20.625V135.062H17.0625V136.062ZM21.125 135.562V132H20.125V135.562H21.125ZM20.625 132.5H27.75V131.5H20.625V132.5ZM27.25 132V149.812H28.25V132H27.25ZM27.75 150.312H38.4375V149.312H27.75V150.312ZM38.9375 149.812V139.125H37.9375V149.812H38.9375ZM38.4375 138.625H34.875V139.625H38.4375V138.625ZM35.375 139.125V132H34.375V139.125H35.375ZM34.875 132.5H38.4375V131.5H34.875V132.5ZM37.9375 132V135.562H38.9375V132H37.9375ZM38.4375 136.062H42V135.062H38.4375V136.062ZM41.5 135.562V153.375H42.5V135.562H41.5ZM42 152.875H38.4375V153.875H42V152.875ZM37.9375 153.375V156.938H38.9375V153.375H37.9375ZM38.4375 156.438H20.625V157.438H38.4375V156.438ZM21.125 156.938L21.125 153.375H20.125L20.125 156.938H21.125ZM20.625 152.875H17.0625V153.875H20.625V152.875ZM20.625 113.062V112.562H20.125V113.062H20.625ZM20.625 123.75H20.125V124.25H20.625V123.75ZM38.4375 123.75V124.25H38.9375V123.75H38.4375ZM38.4375 113.062H38.9375V112.562H38.4375V113.062ZM38.4375 127.312V126.812H37.9375V127.312H38.4375ZM38.4375 130.875V131.375H38.9375V130.875H38.4375ZM20.625 130.875H20.125V131.375H20.625V130.875ZM20.625 127.312H21.125V126.812H20.625V127.312ZM17.0625 127.312H16.5625V127.812H17.0625V127.312ZM17.0625 109.5V109H16.5625V109.5H17.0625ZM20.625 109.5V110H21.125V109.5H20.625ZM20.625 105.938V105.438H20.125V105.938H20.625ZM38.4375 105.938H38.9375V105.438H38.4375V105.938ZM38.4375 109.5H37.9375V110H38.4375V109.5ZM42 109.5H42.5V109H42V109.5ZM42 127.312V127.812H42.5V127.312H42ZM20.125 113.062V123.75H21.125V113.062H20.125ZM20.625 124.25H38.4375V123.25H20.625V124.25ZM38.9375 123.75V113.062H37.9375V123.75H38.9375ZM38.4375 112.562H20.625V113.562H38.4375V112.562ZM37.9375 127.312V130.875H38.9375V127.312H37.9375ZM38.4375 130.375H20.625V131.375H38.4375V130.375ZM21.125 130.875V127.312H20.125V130.875H21.125ZM20.625 126.812H17.0625V127.812H20.625V126.812ZM17.5625 127.312V109.5H16.5625V127.312H17.5625ZM17.0625 110H20.625V109H17.0625V110ZM21.125 109.5V105.938H20.125V109.5H21.125ZM20.625 106.438H38.4375V105.438H20.625V106.438ZM37.9375 105.938V109.5H38.9375V105.938H37.9375ZM38.4375 110H42V109H38.4375V110ZM41.5 109.5L41.5 127.312H42.5L42.5 109.5H41.5ZM42 126.812H38.4375V127.812H42V126.812ZM20.625 101.25V100.75H20.125V101.25H20.625ZM20.625 104.812V105.312H21.125V104.812H20.625ZM17.0625 104.812H16.5625V105.312H17.0625V104.812ZM17.0625 97.6875V97.1875H16.5625V97.6875H17.0625ZM20.625 97.6875V98.1875H21.125V97.6875H20.625ZM20.625 94.125V93.625H20.125V94.125H20.625ZM42 94.125H42.5V93.625H42V94.125ZM42 101.25V101.75H42.5V101.25H42ZM17.0625 94.125H16.5625V94.625H17.0625V94.125ZM17.0625 83.4375V82.9375H16.5625V83.4375H17.0625ZM20.625 83.4375V83.9375H21.125V83.4375H20.625ZM20.625 79.875V79.375H20.125V79.875H20.625ZM42 79.875H42.5V79.375H42V79.875ZM42 87V87.5H42.5V87H42ZM20.625 87V86.5H20.125V87H20.625ZM20.625 94.125V94.625H21.125V94.125H20.625ZM20.125 101.25V104.812H21.125V101.25H20.125ZM20.625 104.312H17.0625V105.312H20.625V104.312ZM17.5625 104.812V97.6875H16.5625V104.812H17.5625ZM17.0625 98.1875H20.625V97.1875H17.0625V98.1875ZM21.125 97.6875L21.125 94.125H20.125L20.125 97.6875H21.125ZM20.625 94.625H42V93.625H20.625V94.625ZM41.5 94.125V101.25H42.5V94.125H41.5ZM42 100.75H20.625V101.75H42V100.75ZM17.5625 94.125V83.4375H16.5625V94.125H17.5625ZM17.0625 83.9375H20.625V82.9375H17.0625V83.9375ZM21.125 83.4375V79.875H20.125V83.4375H21.125ZM20.625 80.375H42V79.375H20.625V80.375ZM41.5 79.875V87H42.5V79.875H41.5ZM42 86.5H20.625V87.5H42V86.5ZM20.125 87V94.125H21.125V87H20.125ZM20.625 93.625H17.0625V94.625H20.625V93.625ZM42 64.5H42.5V64H42V64.5ZM42 75.1875V75.6875H42.5V75.1875H42ZM38.4375 75.1875V74.6875H37.9375V75.1875H38.4375ZM38.4375 78.75V79.25H38.9375V78.75H38.4375ZM27.75 78.75H27.25V79.25H27.75V78.75ZM27.75 75.1875H28.25V74.6875H27.75V75.1875ZM24.1875 75.1875H23.6875V75.6875H24.1875V75.1875ZM24.1875 64.5H24.6875V64H24.1875V64.5ZM20.625 64.5V64H20.125V64.5H20.625ZM20.625 75.1875V75.6875H21.125V75.1875H20.625ZM17.0625 75.1875H16.5625V75.6875H17.0625V75.1875ZM17.0625 60.9375V60.4375H16.5625V60.9375H17.0625ZM20.625 60.9375V61.4375H21.125V60.9375H20.625ZM20.625 57.375V56.875H20.125V57.375H20.625ZM38.4375 57.375V57.875H38.9375V57.375H38.4375ZM38.4375 53.8125V53.3125H37.9375V53.8125H38.4375ZM42 53.8125H42.5V53.3125H42V53.8125ZM42 60.9375V61.4375H42.5V60.9375H42ZM38.4375 60.9375V60.4375H37.9375V60.9375H38.4375ZM38.4375 64.4722L38.7911 64.8257L38.9375 64.6793V64.4722H38.4375ZM38.4097 64.5V65H38.6168L38.7632 64.8536L38.4097 64.5ZM27.75 64.5V64H27.25V64.5H27.75ZM27.75 71.625H27.25V72.125H27.75V71.625ZM38.4375 71.625V72.125H38.9375V71.625H38.4375ZM38.4375 64.5V64H37.9375V64.5H38.4375ZM41.5 64.5V75.1875H42.5V64.5H41.5ZM42 74.6875H38.4375V75.6875H42V74.6875ZM37.9375 75.1875V78.75H38.9375V75.1875H37.9375ZM38.4375 78.25H27.75V79.25H38.4375V78.25ZM28.25 78.75V75.1875H27.25V78.75H28.25ZM27.75 74.6875H24.1875V75.6875H27.75V74.6875ZM24.6875 75.1875V64.5H23.6875V75.1875H24.6875ZM24.1875 64H20.625V65H24.1875V64ZM20.125 64.5V75.1875H21.125V64.5H20.125ZM20.625 74.6875H17.0625V75.6875H20.625V74.6875ZM17.5625 75.1875V60.9375H16.5625V75.1875H17.5625ZM17.0625 61.4375H20.625V60.4375H17.0625V61.4375ZM21.125 60.9375V57.375H20.125V60.9375H21.125ZM20.625 57.875H38.4375V56.875H20.625V57.875ZM38.9375 57.375V53.8125H37.9375V57.375H38.9375ZM38.4375 54.3125H42V53.3125H38.4375V54.3125ZM41.5 53.8125V60.9375H42.5V53.8125H41.5ZM42 60.4375H38.4375V61.4375H42V60.4375ZM37.9375 60.9375V64.4722H38.9375V60.9375H37.9375ZM38.0839 64.1186L38.0561 64.1464L38.7632 64.8536L38.7911 64.8257L38.0839 64.1186ZM38.4097 64H27.75V65H38.4097V64ZM27.25 64.5V71.625H28.25V64.5H27.25ZM27.75 72.125H38.4375V71.125H27.75V72.125ZM38.9375 71.625V64.5H37.9375V71.625H38.9375ZM38.4375 65H42V64H38.4375V65ZM24.1875 38.4375H24.6875L24.6875 37.9375H24.1875L24.1875 38.4375ZM24.1875 42H23.6875V42.5H24.1875V42ZM38.4375 42V42.5H38.9375V42H38.4375ZM38.4375 38.4375V37.9375H37.9375V38.4375H38.4375ZM42 38.4375H42.5V37.9375H42V38.4375ZM42 52.6875V53.1875H42.5V52.6875H42ZM38.4375 52.6875H37.9375V53.1875H38.4375V52.6875ZM38.4375 49.125H38.9375V48.625H38.4375V49.125ZM20.625 49.125V48.625H20.125V49.125H20.625ZM20.625 52.6875V53.1875H21.125V52.6875H20.625ZM17.0625 52.6875H16.5625V53.1875H17.0625V52.6875ZM17.0625 45.5625V45.0625H16.5625V45.5625H17.0625ZM20.625 45.5625V46.0625H21.125V45.5625H20.625ZM20.625 42H21.125V41.5H20.625V42ZM17.0625 42H16.5625V42.5H17.0625V42ZM17.0625 31.3125V30.8125H16.5625V31.3125H17.0625ZM20.625 31.3125V31.8125H21.125V31.3125H20.625ZM20.625 27.75V27.25H20.125V27.75H20.625ZM27.75 27.75H28.25V27.25H27.75V27.75ZM27.75 34.875V35.375H28.25V34.875H27.75ZM20.625 34.875V34.375H20.125V34.875H20.625ZM20.625 38.4375H20.125V38.9375H20.625V38.4375ZM23.6875 38.4375V42H24.6875V38.4375H23.6875ZM24.1875 42.5H38.4375V41.5H24.1875V42.5ZM38.9375 42V38.4375H37.9375V42H38.9375ZM38.4375 38.9375H42V37.9375H38.4375V38.9375ZM41.5 38.4375V52.6875H42.5V38.4375H41.5ZM42 52.1875H38.4375V53.1875H42V52.1875ZM38.9375 52.6875V49.125H37.9375V52.6875H38.9375ZM38.4375 48.625H20.625V49.625H38.4375V48.625ZM20.125 49.125V52.6875H21.125V49.125H20.125ZM20.625 52.1875H17.0625V53.1875H20.625V52.1875ZM17.5625 52.6875V45.5625H16.5625V52.6875H17.5625ZM17.0625 46.0625H20.625V45.0625H17.0625V46.0625ZM21.125 45.5625V42H20.125V45.5625H21.125ZM20.625 41.5H17.0625V42.5H20.625V41.5ZM17.5625 42L17.5625 31.3125H16.5625L16.5625 42H17.5625ZM17.0625 31.8125H20.625V30.8125H17.0625V31.8125ZM21.125 31.3125V27.75H20.125V31.3125H21.125ZM20.625 28.25H27.75V27.25H20.625V28.25ZM27.25 27.75V34.875H28.25V27.75H27.25ZM27.75 34.375H20.625V35.375H27.75V34.375ZM20.125 34.875L20.125 38.4375H21.125L21.125 34.875H20.125ZM20.625 38.9375H24.1875L24.1875 37.9375H20.625L20.625 38.9375ZM20.625 12.375V11.875H20.125V12.375H20.625ZM20.625 15.9375H20.125V16.4375H20.625V15.9375ZM24.1875 15.9375H24.6875V15.4375H24.1875V15.9375ZM24.1875 19.5H23.6875V20H24.1875V19.5ZM38.4375 19.5V20H38.9375V19.5H38.4375ZM38.4375 12.4028L38.0839 12.0493L37.9375 12.1957V12.4028H38.4375ZM38.4653 12.375V11.875H38.2582L38.1118 12.0214L38.4653 12.375ZM42 12.375H42.5V11.875H42V12.375ZM42 23.0625V23.5625H42.5V23.0625H42ZM38.4375 23.0625V22.5625H37.9375V23.0625H38.4375ZM38.4375 26.625V27.125H38.9375V26.625H38.4375ZM24.1875 26.625H23.6875V27.125H24.1875V26.625ZM24.1875 23.0625H24.6875V22.5625H24.1875V23.0625ZM20.625 23.0625H20.125V23.5625H20.625V23.0625ZM20.625 19.5H21.125V19H20.625V19.5ZM17.0625 19.5H16.5625V20H17.0625V19.5ZM17.0625 12.375H17.5625V11.875H17.0625V12.375ZM9.9375 12.375V11.875H9.4375V12.375H9.9375ZM9.9375 15.9375V16.4375H10.4375V15.9375H9.9375ZM6.375 15.9375H5.875L5.875 16.4375H6.375L6.375 15.9375ZM6.375 5.25V4.75H5.875V5.25H6.375ZM38.4375 5.25V5.75H38.9375V5.25H38.4375ZM38.4375 1.6875V1.1875H37.9375V1.6875H38.4375ZM42 1.6875H42.5V1.1875H42V1.6875ZM42 8.8125L42 9.3125H42.5L42.5 8.8125H42ZM38.4375 8.8125V8.3125H37.9375V8.8125H38.4375ZM38.4375 12.375V12.875H38.9375V12.375H38.4375ZM20.125 12.375V15.9375H21.125V12.375H20.125ZM20.625 16.4375H24.1875V15.4375H20.625V16.4375ZM23.6875 15.9375V19.5H24.6875V15.9375H23.6875ZM24.1875 20H38.4375V19H24.1875V20ZM38.9375 19.5V12.4028H37.9375V19.5H38.9375ZM38.7911 12.7564L38.8189 12.7286L38.1118 12.0214L38.0839 12.0493L38.7911 12.7564ZM38.4653 12.875H42V11.875H38.4653V12.875ZM41.5 12.375V23.0625H42.5V12.375H41.5ZM42 22.5625H38.4375V23.5625H42V22.5625ZM37.9375 23.0625V26.625H38.9375V23.0625H37.9375ZM38.4375 26.125H24.1875V27.125H38.4375V26.125ZM24.6875 26.625V23.0625H23.6875V26.625H24.6875ZM24.1875 22.5625H20.625V23.5625H24.1875V22.5625ZM21.125 23.0625V19.5H20.125V23.0625H21.125ZM20.625 19H17.0625V20H20.625V19ZM17.5625 19.5V12.375H16.5625V19.5H17.5625ZM17.0625 11.875H9.9375V12.875H17.0625V11.875ZM9.4375 12.375V15.9375H10.4375V12.375H9.4375ZM9.9375 15.4375H6.375L6.375 16.4375H9.9375V15.4375ZM6.875 15.9375V5.25H5.875V15.9375H6.875ZM6.375 5.75H38.4375V4.75H6.375V5.75ZM38.9375 5.25V1.6875H37.9375V5.25H38.9375ZM38.4375 2.1875H42V1.1875H38.4375V2.1875ZM41.5 1.6875V8.8125H42.5V1.6875H41.5ZM42 8.3125H38.4375L38.4375 9.3125H42L42 8.3125ZM37.9375 8.8125L37.9375 12.375H38.9375L38.9375 8.8125H37.9375ZM38.4375 11.875H20.625V12.875H38.4375V11.875Z" fill="#808080"/>
</g>
<defs>
<clipPath id="clip0">
<rect width="298" height="47" fill="white" transform="translate(0 298) rotate(-90)"/>
</clipPath>
</defs>
</svg>
